<svg width="20" height="21" viewBox="0 0 20 21" fill="none" xmlns="http://www.w3.org/2000/svg">
<g clip-path="url(#clip0_5361_7058)">
<path d="M9.16758 4.66665V13.975L5.10091 9.90831C4.77591 9.58331 4.24258 9.58331 3.91758 9.90831C3.59258 10.2333 3.59258 10.7583 3.91758 11.0833L9.40925 16.575C9.73424 16.9 10.2592 16.9 10.5842 16.575L16.0759 11.0833C16.4009 10.7583 16.4009 10.2333 16.0759 9.90831C15.7509 9.58331 15.2259 9.58331 14.9009 9.90831L10.8342 13.975V4.66665C10.8342 4.20831 10.4592 3.83331 10.0009 3.83331C9.54258 3.83331 9.16758 4.20831 9.16758 4.66665Z" fill="#161724"/>
</g>
<defs>
<clipPath id="clip0_5361_7058">
<rect width="20" height="20" fill="white" transform="translate(0 0.5)"/>
</clipPath>
</defs>
</svg>
