<svg width="36" height="48" viewBox="0 0 36 48" fill="none" xmlns="http://www.w3.org/2000/svg">
<path d="M33.9724 25.1815C32.8573 23.7395 31.1745 22.7491 28.9242 22.2108C31.7898 20.7491 33.0492 18.2682 32.7034 14.7678C32.5878 13.4984 32.237 12.3984 31.6502 11.4659C31.063 10.5332 30.2705 9.78342 29.2699 9.2162C28.27 8.64827 27.1825 8.21593 26.01 7.91787C24.8372 7.61982 23.4907 7.40339 21.9714 7.26891V-0.000488281H17.5294V7.06694C16.7602 7.06694 15.5871 7.08614 14.0104 7.12463V-0.000488281H9.56777V7.26891C8.93296 7.28821 8.00039 7.29801 6.76966 7.29801L0.654297 7.26891V11.9999H3.85606C5.31766 11.9999 6.17344 12.6539 6.4234 13.9614V22.2406C6.61598 22.2406 6.76966 22.2505 6.88514 22.2697H6.4234V33.8656C6.26973 34.8461 5.7121 35.3369 4.75043 35.3369H1.54888L0.654499 40.6159H6.42391C6.78936 40.6159 7.31788 40.6208 8.01049 40.6295C8.70269 40.6392 9.22172 40.644 9.56798 40.644V47.9998H14.0113V40.7305C14.8188 40.7502 15.9918 40.7596 17.5303 40.7596V47.9998H21.9724V40.644C23.5497 40.5672 24.9486 40.4238 26.1692 40.2115C27.3905 39.9992 28.5591 39.668 29.6742 39.2158C30.7893 38.7641 31.7218 38.2013 32.4717 37.5282C33.222 36.8557 33.8417 35.9995 34.3329 34.9608C34.8226 33.9221 35.1355 32.7202 35.2696 31.3545C35.5207 28.6821 35.0878 26.6241 33.9724 25.1815ZM14.0968 12.3163C14.2314 12.3163 14.6112 12.3115 15.2362 12.3018C15.8616 12.2919 16.3806 12.2824 16.794 12.2727C17.2076 12.2632 17.7653 12.2872 18.4675 12.3449C19.1694 12.4026 19.7607 12.4797 20.2413 12.5757C20.7219 12.6717 21.2513 12.8304 21.8277 13.0516C22.4051 13.2725 22.8664 13.5419 23.2121 13.8591C23.5586 14.1764 23.8518 14.5805 24.0917 15.0709C24.3324 15.5612 24.4526 16.1237 24.4526 16.7582C24.4526 17.2967 24.3662 17.7873 24.1934 18.2298C24.0208 18.672 23.7605 19.0423 23.4148 19.3404C23.0689 19.6386 22.7125 19.8984 22.347 20.1194C21.982 20.3404 21.5152 20.5184 20.9481 20.6529C20.381 20.7875 19.8859 20.8933 19.463 20.9701C19.0399 21.0471 18.5112 21.1002 17.8764 21.1289C17.2416 21.1575 16.7607 21.1771 16.4339 21.1866C16.1069 21.1961 15.6599 21.1961 15.0924 21.1866C14.5247 21.1771 14.1934 21.1721 14.0971 21.1721V12.3162L14.0968 12.3163ZM26.2272 31.9606C26.0441 32.4032 25.8088 32.788 25.5206 33.1152C25.2318 33.4415 24.8518 33.7303 24.3809 33.9799C23.9101 34.2303 23.4529 34.4319 23.0109 34.5858C22.5684 34.7402 22.0345 34.8741 21.4101 34.9899C20.7843 35.1054 20.2366 35.1866 19.7649 35.235C19.294 35.2832 18.7317 35.3215 18.0776 35.3506C17.424 35.3789 16.9141 35.3935 16.5488 35.3935C16.1834 35.3935 15.7217 35.3883 15.164 35.3789C14.606 35.3699 14.2505 35.3651 14.0965 35.3651V25.6145C14.2502 25.6145 14.707 25.6051 15.4668 25.5855C16.2267 25.5661 16.8466 25.5571 17.3274 25.5571C17.8081 25.5571 18.4719 25.5855 19.3183 25.6436C20.164 25.7009 20.8756 25.7871 21.453 25.9024C22.0298 26.018 22.6591 26.1957 23.3423 26.4363C24.0248 26.6766 24.578 26.9698 25.0013 27.3159C25.4244 27.6627 25.7799 28.1043 26.0683 28.643C26.3574 29.1813 26.5016 29.7968 26.5016 30.4893C26.5015 31.0283 26.4102 31.518 26.2272 31.9606Z" fill="url(#paint0_linear_4225_20568)"/>
<defs>
<linearGradient id="paint0_linear_4225_20568" x1="17.9965" y1="-0.000488281" x2="17.9965" y2="47.9998" gradientUnits="userSpaceOnUse">
<stop stop-color="#FEC28E"/>
<stop offset="1" stop-color="#FFD37A"/>
</linearGradient>
</defs>
</svg>
