<svg width="48" height="48" viewBox="0 0 48 48" fill="none" xmlns="http://www.w3.org/2000/svg">
<circle cx="24" cy="23.9996" r="24" fill="#181928"/>
<circle cx="24.0014" cy="23.9995" r="21.2987" fill="#181928" stroke="url(#paint0_linear_4347_38602)" stroke-width="0.831169"/>
<path opacity="0.6" d="M54.977 37.2476C55.5025 37.7701 55.5026 38.6204 54.9772 39.1431L45.3066 48.7621C44.7853 49.2806 43.9432 49.2807 43.4217 48.7625L31.6083 37.0206C30.7627 36.1802 29.3971 36.1803 28.5517 37.0209L16.7428 48.7621C16.2214 49.2805 15.3792 49.2804 14.8578 48.7619L5.18724 39.1428C4.66189 38.6203 4.6619 37.7701 5.18727 37.2475L15.2024 27.2864C16.5737 25.9225 15.6078 23.5817 13.6737 23.5817L6.48282 23.5817C6.12974 23.5817 5.791 23.442 5.54058 23.1931L-6.97645 10.752C-7.5022 10.2294 -7.50227 9.37879 -6.97661 8.85614L2.69793 -0.762996C3.21928 -1.28136 4.06138 -1.28136 4.58272 -0.762997L16.3916 10.9782C17.2371 11.8189 18.6029 11.8189 19.4485 10.9782L31.2573 -0.762997C31.7787 -1.28136 32.6208 -1.28136 33.1421 -0.762997L42.8167 8.85614C43.3423 9.37879 43.3422 10.2294 42.8165 10.752L32.8001 20.7076C31.4281 22.0713 32.3938 24.4128 34.3283 24.4128H41.5169C41.8701 24.4128 42.2089 24.5526 42.4593 24.8016L54.977 37.2476Z" stroke="url(#paint1_linear_4347_38602)" stroke-width="0.831169"/>
<path d="M35.0186 26.9354C34.7099 26.1693 34.2285 25.5152 33.5744 24.9743C32.9203 24.4334 32.0775 24.0504 31.0427 23.8251C32.2548 23.3265 33.1524 22.5924 33.7345 21.6239C34.3165 20.6553 34.6081 19.5587 34.6081 18.3351C34.6081 15.9589 33.6933 14.1705 31.8626 12.9698C30.7065 12.2117 29.2645 11.6937 27.5355 11.4147H27.7208V6.76633L24.862 6.76633V11.178C24.6493 11.1722 24.4344 11.17 24.216 11.17H22.6516V6.76747H19.7929V11.17H12.4688V14.8417L15.1606 15.4123L15.1606 32.8999L12.4687 33.4705L12.4687 37.1252H19.7929V41.0725H22.6516V37.1252H24.862V41.0725H27.7208V37.0131C29.9014 36.7775 31.6396 36.1681 32.9329 35.1824C34.6321 33.8868 35.4817 31.968 35.4817 29.4248C35.4817 28.534 35.3274 27.705 35.0186 26.9377V26.9354ZM27.3263 16.6851C28.0089 17.1779 28.3509 17.9658 28.3509 19.0464C28.3509 20.0332 27.9849 20.7605 27.2542 21.2305C26.5235 21.7005 25.4212 21.9349 23.9472 21.9349H21.4155V15.9452L24.2137 15.9452C25.6042 15.9452 26.6413 16.1922 27.324 16.6851H27.3263ZM28.3246 31.6318C27.7002 32.1189 26.7705 32.3625 25.5344 32.3625H21.4167V26.0698H25.8374C26.6459 26.0698 27.2988 26.1921 27.7985 26.4357C28.2971 26.6793 28.6665 27.0475 28.9043 27.5415C29.1422 28.0343 29.2611 28.6553 29.2611 29.4042C29.2611 30.4025 28.9489 31.1458 28.3257 31.6329L28.3246 31.6318Z" fill="white"/>
<defs>
<linearGradient id="paint0_linear_4347_38602" x1="24.0014" y1="45.7138" x2="1.67927" y2="6.71148" gradientUnits="userSpaceOnUse">
<stop stop-color="#7B6EFF"/>
<stop offset="0.65819" stop-color="#E1C8CF"/>
<stop offset="1" stop-color="#FFD37A"/>
</linearGradient>
<linearGradient id="paint1_linear_4347_38602" x1="24" y1="-2.28604" x2="24" y2="50.2854" gradientUnits="userSpaceOnUse">
<stop stop-color="#7B6EFF"/>
<stop offset="0.545" stop-color="#E1C8CF"/>
<stop offset="1" stop-color="#EAAB80"/>
</linearGradient>
</defs>
</svg>
