<svg width="48" height="48" viewBox="0 0 48 48" fill="none" xmlns="http://www.w3.org/2000/svg">
<g clip-path="url(#clip0_4225_20642)">
<path d="M20 18C18.9 18 18 18.9 18 20C18 21.1 18.9 22 20 22C21.1 22 22 21.1 22 20C22 18.9 21.1 18 20 18ZM20 26C18.9 26 18 26.9 18 28C18 29.1 18.9 30 20 30C21.1 30 22 29.1 22 28C22 26.9 21.1 26 20 26ZM14 19C13.44 19 13 19.44 13 20C13 20.56 13.44 21 14 21C14.56 21 15 20.56 15 20C15 19.44 14.56 19 14 19ZM20 33C19.44 33 19 33.44 19 34C19 34.56 19.44 35 20 35C20.56 35 21 34.56 21 34C21 33.44 20.56 33 20 33ZM14 27C13.44 27 13 27.44 13 28C13 28.56 13.44 29 14 29C14.56 29 15 28.56 15 28C15 27.44 14.56 27 14 27ZM20 15C20.56 15 21 14.56 21 14C21 13.44 20.56 13 20 13C19.44 13 19 13.44 19 14C19 14.56 19.44 15 20 15ZM28 18C26.9 18 26 18.9 26 20C26 21.1 26.9 22 28 22C29.1 22 30 21.1 30 20C30 18.9 29.1 18 28 18ZM28 15C28.56 15 29 14.56 29 14C29 13.44 28.56 13 28 13C27.44 13 27 13.44 27 14C27 14.56 27.44 15 28 15ZM34 27C33.44 27 33 27.44 33 28C33 28.56 33.44 29 34 29C34.56 29 35 28.56 35 28C35 27.44 34.56 27 34 27ZM34 19C33.44 19 33 19.44 33 20C33 20.56 33.44 21 34 21C34.56 21 35 20.56 35 20C35 19.44 34.56 19 34 19ZM24 4C12.96 4 4 12.96 4 24C4 35.04 12.96 44 24 44C35.04 44 44 35.04 44 24C44 12.96 35.04 4 24 4ZM24 40C15.16 40 8 32.84 8 24C8 15.16 15.16 8 24 8C32.84 8 40 15.16 40 24C40 32.84 32.84 40 24 40ZM28 33C27.44 33 27 33.44 27 34C27 34.56 27.44 35 28 35C28.56 35 29 34.56 29 34C29 33.44 28.56 33 28 33ZM28 26C26.9 26 26 26.9 26 28C26 29.1 26.9 30 28 30C29.1 30 30 29.1 30 28C30 26.9 29.1 26 28 26Z" fill="url(#paint0_linear_4225_20642)"/>
</g>
<defs>
<linearGradient id="paint0_linear_4225_20642" x1="24" y1="4" x2="24" y2="44" gradientUnits="userSpaceOnUse">
<stop stop-color="#7B6EFF"/>
<stop offset="0.545" stop-color="#E1C8CF"/>
<stop offset="1" stop-color="#EAAB80"/>
</linearGradient>
<clipPath id="clip0_4225_20642">
<rect width="48" height="48" fill="white"/>
</clipPath>
</defs>
</svg>
