<svg width="21" height="20" viewBox="0 0 21 20" fill="none" xmlns="http://www.w3.org/2000/svg">
<g clip-path="url(#clip0_5407_23978)">
<path d="M20.4999 10C20.4999 11.9778 19.9135 13.9112 18.8146 15.5557C17.7158 17.2002 16.154 18.4819 14.3268 19.2388C12.4995 19.9957 10.4888 20.1937 8.54904 19.8079C6.60923 19.422 4.8274 18.4696 3.42888 17.0711C2.03035 15.6725 1.07794 13.8907 0.692091 11.9509C0.306238 10.0111 0.504272 8.00043 1.26115 6.17317C2.01802 4.3459 3.29975 2.78412 4.94424 1.6853C6.58873 0.58649 8.52213 0 10.4999 0C13.1521 0 15.6956 1.05357 17.571 2.92893C19.4464 4.8043 20.4999 7.34783 20.4999 10Z" fill="#F7931A"/>
<path fill-rule="evenodd" clip-rule="evenodd" d="M7.60735 4.56667L9.90553 5.18212L10.4192 3.26758L11.5683 3.5794L11.0746 5.41485L12.0119 5.66667L12.5064 3.81121L13.6755 4.12394L13.1719 5.9894C13.1719 5.9894 15.081 6.41212 15.5301 7.96485C15.9792 9.51758 14.5428 10.333 14.0992 10.3639C14.0992 10.3639 15.7719 11.2812 15.1974 13.0858C14.6228 14.8903 12.8592 15.213 11.0037 14.7994L10.5001 16.7339L9.33099 16.4212L9.84462 14.5167L8.91735 14.2639L8.40372 16.1821L7.24372 15.8703L7.75826 13.9612L5.39917 13.3249L5.99372 12.0049C5.99372 12.0049 6.65917 12.1867 6.91099 12.2467C7.16281 12.3067 7.32462 12.0449 7.39553 11.783C7.46644 11.5212 8.53462 7.18212 8.63553 6.82485C8.73644 6.46758 8.69553 6.18849 8.2719 6.07849C7.84826 5.96849 7.2719 5.79667 7.2719 5.79667L7.60735 4.56667ZM9.92553 10.313L9.28917 12.843C9.28917 12.843 12.4446 13.9821 12.8483 12.3794C13.2519 10.7767 9.92553 10.313 9.92553 10.313ZM10.2183 9.11303L10.8428 6.79485C10.8428 6.79485 13.5446 7.27849 13.2119 8.56849C12.8792 9.85849 11.2864 9.36394 10.2183 9.11303Z" fill="white"/>
</g>
<defs>
<clipPath id="clip0_5407_23978">
<rect width="20" height="20" fill="white" transform="translate(0.5)"/>
</clipPath>
</defs>
</svg>
