<svg width="52" height="52" viewBox="0 0 52 52" fill="none" xmlns="http://www.w3.org/2000/svg">
<rect x="0.5" y="0.5" width="51" height="51" rx="25.5" stroke="#161724"/>
<g clip-path="url(#clip0_4356_46853)">
<path d="M24.833 26.6615L24.7275 26.5267V26.5257L24.7256 26.5238C24.7242 26.522 24.7224 26.5193 24.7197 26.516C24.7143 26.5089 24.706 26.4984 24.6953 26.4847C24.6739 26.4572 24.6425 26.4162 24.6016 26.3636C24.5196 26.2583 24.4001 26.1051 24.251 25.9134C23.9528 25.5301 23.5348 24.9929 23.0566 24.3783L19.9365 20.3675C19.7681 20.1473 19.9231 19.8333 20.2002 19.8333H31.792C32.0818 19.8336 32.2288 20.1512 32.0635 20.3675C31.0968 21.6093 29.8986 23.1491 28.9424 24.3783C28.4643 24.9928 28.0472 25.5301 27.749 25.9134C27.5999 26.1051 27.4804 26.2583 27.3984 26.3636C27.3575 26.4163 27.3261 26.4572 27.3047 26.4847C27.294 26.4984 27.2857 26.5089 27.2803 26.516C27.2777 26.5193 27.2758 26.522 27.2744 26.5238L27.2715 26.5267L27.167 26.6615V31.0003C27.1668 31.6407 26.6404 32.1663 26 32.1663C25.3596 32.1663 24.8332 31.6407 24.833 31.0003V26.6615Z" fill="#161724" stroke="#161724"/>
</g>
<defs>
<clipPath id="clip0_4356_46853">
<rect width="20" height="20" fill="white" transform="translate(16 16)"/>
</clipPath>
</defs>
</svg>
