<svg width="312" height="189" viewBox="0 0 312 189" fill="none" xmlns="http://www.w3.org/2000/svg">
<g clip-path="url(#clip0_4225_20553)">
<path opacity="0.2" d="M228.624 8.07617C232.592 4.12729 238.929 4.00395 243.045 7.70605L243.437 8.07617L298.326 62.6992C302.322 66.6761 302.446 73.0664 298.699 77.1934L298.324 77.5859L242.286 133.333C235.013 140.569 240.137 152.986 250.396 152.986H289.687C292.289 152.986 294.792 153.952 296.716 155.687L297.093 156.043L368.813 227.416C372.809 231.392 372.934 237.78 369.189 241.907L368.815 242.3L313.948 296.922C309.981 300.872 303.643 300.997 299.526 297.295L299.135 296.925L231.854 229.993C227.508 225.669 220.568 225.535 216.061 229.59L215.632 229.995L148.378 296.923C144.409 300.872 138.071 300.994 133.955 297.291L133.563 296.921L78.6963 242.299C74.7024 238.323 74.5777 231.934 78.3223 227.808L78.6963 227.416L134.729 171.636C141.999 164.399 136.874 151.986 126.616 151.986H87.3125C84.7108 151.986 82.208 151.02 80.2842 149.287L79.9072 148.93L8.19043 77.5859C4.19349 73.6097 4.06785 67.2185 7.81445 63.0908L8.18945 62.6992L63.0781 8.07617C67.0465 4.12709 73.3836 4.00378 77.5 7.70605L77.8916 8.07617L145.146 75.0039C149.492 79.329 156.432 79.4639 160.94 75.4092L161.369 75.0039L228.624 8.07617Z" fill="url(#paint0_linear_4225_20553)" stroke="url(#paint1_linear_4225_20553)"/>
</g>
<defs>
<linearGradient id="paint0_linear_4225_20553" x1="188.5" y1="0" x2="188.5" y2="305" gradientUnits="userSpaceOnUse">
<stop stop-color="#7B6EFF"/>
<stop offset="0.545" stop-color="#E1C8CF"/>
<stop offset="1" stop-color="#EAAB80"/>
</linearGradient>
<linearGradient id="paint1_linear_4225_20553" x1="188.5" y1="0" x2="188.5" y2="305" gradientUnits="userSpaceOnUse">
<stop/>
<stop offset="1" stop-color="#666666"/>
</linearGradient>
<clipPath id="clip0_4225_20553">
<path d="M0 0H312V157C312 174.673 297.673 189 280 189H0V0Z" fill="white"/>
</clipPath>
</defs>
</svg>
