<svg width="215" height="130" viewBox="0 0 215 130" fill="none" xmlns="http://www.w3.org/2000/svg">
<g clip-path="url(#clip0_4245_12952)">
<path opacity="0.2" d="M157.151 5.62C159.877 2.9074 164.23 2.82216 167.058 5.36511L167.326 5.62L205.031 43.1415C207.776 45.8733 207.862 50.2635 205.288 53.0985L205.03 53.368L166.536 91.662C161.54 96.6325 165.06 105.162 172.107 105.162H199.097C200.884 105.162 202.604 105.826 203.926 107.017L204.185 107.263L253.451 156.29C256.196 159.021 256.282 163.41 253.71 166.245L253.452 166.515L215.763 204.036C213.037 206.749 208.685 206.834 205.856 204.292L205.587 204.038L159.37 158.06C156.384 155.09 151.617 154.998 148.521 157.783L148.227 158.061L102.028 204.036C99.3019 206.749 94.9477 206.833 92.1201 204.289L91.8516 204.035L54.1621 166.514C51.4186 163.782 51.3331 159.394 53.9053 156.559L54.1621 156.29L92.6523 117.974C97.6462 113.002 94.1256 104.475 87.0791 104.475H60.0801C58.293 104.475 56.5744 103.812 55.2529 102.621L54.9932 102.376L5.72949 53.368C2.98388 50.6367 2.89801 46.2464 5.47168 43.411L5.72852 43.1415L43.4336 5.62C46.1596 2.90726 50.5132 2.82189 53.3408 5.36511L53.6094 5.62L99.8076 51.5946C102.793 54.5656 107.561 54.6583 110.658 51.8729L110.952 51.5946L157.151 5.62Z" fill="url(#paint0_linear_4245_12952)" stroke="url(#paint1_linear_4245_12952)" stroke-width="0.686926"/>
</g>
<defs>
<linearGradient id="paint0_linear_4245_12952" x1="129.589" y1="0.0721436" x2="129.589" y2="209.585" gradientUnits="userSpaceOnUse">
<stop stop-color="#7B6EFF"/>
<stop offset="0.545" stop-color="#E1C8CF"/>
<stop offset="1" stop-color="#EAAB80"/>
</linearGradient>
<linearGradient id="paint1_linear_4245_12952" x1="129.589" y1="0.0721436" x2="129.589" y2="209.585" gradientUnits="userSpaceOnUse">
<stop/>
<stop offset="1" stop-color="#666666"/>
</linearGradient>
<clipPath id="clip0_4245_12952">
<path d="M0.103516 0.0721436H214.424V107.92C214.424 120.06 204.583 129.901 192.443 129.901H0.103516V0.0721436Z" fill="white"/>
</clipPath>
</defs>
</svg>
