<svg width="24" height="19" viewBox="0 0 24 19" fill="none" xmlns="http://www.w3.org/2000/svg">
<path d="M20.3171 1.84846C18.7874 1.1466 17.1471 0.629477 15.4319 0.333274C15.4007 0.327555 15.3695 0.341852 15.3534 0.370399C15.1424 0.745633 14.9088 1.2351 14.7451 1.61985C12.9005 1.34366 11.0652 1.34366 9.25836 1.61985C9.09468 1.22657 8.85252 0.745633 8.6406 0.370399C8.62452 0.34279 8.5933 0.328493 8.56208 0.333274C6.84796 0.628493 5.20761 1.14562 3.67696 1.84846C3.66369 1.85418 3.65235 1.8637 3.6448 1.87607C0.533426 6.52443 -0.318949 11.0586 0.0991759 15.5364C0.101051 15.5583 0.113379 15.5793 0.130395 15.5926C2.18319 17.1002 4.17172 18.0154 6.12327 18.622C6.15449 18.6315 6.18758 18.6201 6.20746 18.5944C6.66908 17.964 7.0806 17.2993 7.43343 16.6002C7.45424 16.5593 7.43436 16.5107 7.3918 16.4945C6.73907 16.2469 6.11755 15.945 5.51966 15.6022C5.47236 15.5746 5.46857 15.5069 5.51211 15.4746C5.63793 15.3803 5.76379 15.2822 5.88393 15.1831C5.90568 15.165 5.93596 15.1612 5.9615 15.1726C9.88925 16.9659 14.1415 16.9659 18.0229 15.1726C18.0485 15.1603 18.0787 15.1641 18.1014 15.1821C18.2216 15.2812 18.3474 15.3802 18.4742 15.4745C18.5177 15.5069 18.5148 15.5745 18.4676 15.6021C17.8697 15.9516 17.2482 16.2469 16.5945 16.4935C16.5519 16.5097 16.533 16.5592 16.5538 16.6002C16.9143 17.2982 17.3258 17.963 17.7789 18.5934C17.7978 18.6201 17.8318 18.6315 17.8631 18.622C19.8241 18.0154 21.8126 17.1001 23.8654 15.5926C23.8834 15.5793 23.8948 15.5593 23.8966 15.5374C24.3971 10.3604 23.0585 5.86349 20.3482 1.87701C20.3416 1.8637 20.3303 1.85418 20.3171 1.84846ZM8.02007 12.8099C6.83755 12.8099 5.86316 11.7242 5.86316 10.3909C5.86316 9.05765 6.81861 7.97198 8.02007 7.97198C9.23089 7.97198 10.1959 9.06716 10.1769 10.3909C10.1769 11.7242 9.22143 12.8099 8.02007 12.8099ZM15.9948 12.8099C14.8123 12.8099 13.8379 11.7242 13.8379 10.3909C13.8379 9.05765 14.7934 7.97198 15.9948 7.97198C17.2056 7.97198 18.1706 9.06716 18.1517 10.3909C18.1517 11.7242 17.2057 12.8099 15.9948 12.8099Z" fill="white"/>
</svg>
