<svg width="52" height="49" viewBox="0 0 52 49" fill="none" xmlns="http://www.w3.org/2000/svg">
<g clip-path="url(#clip0_4352_44386)">
<mask id="mask0_4352_44386" style="mask-type:luminance" maskUnits="userSpaceOnUse" x="0" y="0" width="52" height="49">
<path d="M51.4783 0.478271H0V48.4783H51.4783V0.478271Z" fill="white"/>
</mask>
<g mask="url(#mask0_4352_44386)">
<path d="M6.01172 32.9137V46.7329C6.01172 47.5836 6.73168 47.9367 6.95567 48.0169C7.17966 48.1132 7.93159 48.3219 8.60352 47.6959L19.0578 37.6494C19.9481 36.7939 20.8073 35.8947 21.453 34.8425C21.7569 34.3479 21.8829 34.0693 21.8829 34.0693C22.5229 32.7692 22.5229 31.5173 21.8987 30.2653C20.9711 28.4035 18.603 26.5095 15.0351 24.7119L8.93952 28.1146C7.13166 29.1418 6.01172 30.9555 6.01172 32.9137Z" fill="#004EC3"/>
<path d="M0 2.17713V16.6705C0 18.4842 1.21596 20.0892 2.94389 20.6028C8.83158 22.3041 19.087 25.9635 21.5669 31.3405C21.8866 32.0466 22.0787 32.7368 22.1431 33.4591C23.7909 30.4577 24.5428 27.0068 24.1909 23.5079C23.7107 18.5484 21.0867 14.0383 16.9912 11.1653L2.3839 0.941252C2.12788 0.748648 1.82391 0.652344 1.51993 0.652344C1.26392 0.652344 1.03993 0.700496 0.799958 0.828899C0.319962 1.10175 0 1.59932 0 2.17713Z" fill="#2470FF"/>
<path d="M44.8942 32.9137V46.7329C44.8942 47.5836 44.1744 47.9367 43.9502 48.0169C43.7265 48.1132 42.974 48.3219 42.3024 47.6959L31.6048 37.4158C30.8766 36.7158 30.1812 35.9756 29.6327 35.1274C29.1982 34.4561 29.0231 34.0693 29.0231 34.0693C28.3831 32.7692 28.3831 31.5173 29.0067 30.2653C29.9349 28.4035 32.303 26.5095 35.8704 24.7119L41.9662 28.1146C43.7903 29.1418 44.8942 30.9555 44.8942 32.9137Z" fill="#004EC3"/>
<path d="M50.9146 2.17615V16.6695C50.9146 18.4832 49.6984 20.0882 47.9704 20.6019C42.0829 22.3031 31.8276 25.9626 29.3477 31.3395C29.0274 32.0457 28.8353 32.7358 28.7715 33.4581C27.1237 30.4567 26.3718 27.0059 26.7237 23.507C27.2033 18.5474 29.8273 14.0373 33.9234 11.1643L48.5307 0.94027C48.7866 0.747666 49.0906 0.651367 49.3944 0.651367C49.6504 0.651367 49.8746 0.69952 50.1142 0.827922C50.5943 1.10078 50.9146 1.59834 50.9146 2.17615Z" fill="#2470FF"/>
</g>
</g>
<defs>
<clipPath id="clip0_4352_44386">
<rect width="51.4783" height="48" fill="white" transform="translate(0 0.478271)"/>
</clipPath>
</defs>
</svg>
