<svg width="20" height="20" viewBox="0 0 20 20" fill="none" xmlns="http://www.w3.org/2000/svg">
<g clip-path="url(#clip0_4356_46854)">
<path d="M8.83301 10.6615L8.72754 10.5267V10.5257L8.72559 10.5238C8.72423 10.522 8.72236 10.5193 8.71973 10.516C8.71428 10.5089 8.70597 10.4984 8.69531 10.4847C8.67392 10.4572 8.64248 10.4162 8.60156 10.3636C8.51963 10.2583 8.40007 10.1051 8.25098 9.91341C7.95279 9.53007 7.53477 8.99285 7.05664 8.37826L3.93652 4.36752C3.76813 4.14734 3.92308 3.83334 4.2002 3.83334H15.792C16.0818 3.83364 16.2288 4.15116 16.0635 4.36752C15.0968 5.60925 13.8986 7.14908 12.9424 8.37826C12.4643 8.99277 12.0472 9.5301 11.749 9.91341C11.5999 10.1051 11.4804 10.2583 11.3984 10.3636C11.3575 10.4163 11.3261 10.4572 11.3047 10.4847C11.294 10.4984 11.2857 10.5089 11.2803 10.516C11.2777 10.5193 11.2758 10.522 11.2744 10.5238L11.2715 10.5267L11.167 10.6615V15.0003C11.1668 15.6407 10.6404 16.1663 10 16.1663C9.35958 16.1663 8.83319 15.6407 8.83301 15.0003V10.6615Z" fill="#161724" stroke="#161724"/>
</g>
<defs>
<clipPath id="clip0_4356_46854">
<rect width="20" height="20" fill="white"/>
</clipPath>
</defs>
</svg>
