<svg width="90" height="90" viewBox="0 0 90 90" fill="none" xmlns="http://www.w3.org/2000/svg">
<path d="M32.8711 15.3457C32.8711 13.5879 31.4473 12.1641 29.6895 12.1641H3.5332C1.77539 12.1816 0.351562 13.6055 0.351562 15.3457V74.6367C0.351562 76.3945 1.77539 77.8184 3.5332 77.8184H73.9688C75.7266 77.8184 77.1504 76.3945 77.1504 74.6367V21.709C77.1504 19.9512 75.7266 18.5273 73.9688 18.5273H36.0527C34.2949 18.5273 32.8711 17.1035 32.8711 15.3457Z" fill="#0D0E16"/>
<mask id="mask0_4356_53295" style="mask-type:alpha" maskUnits="userSpaceOnUse" x="0" y="12" width="78" height="66">
<path d="M32.8711 15.3456C32.8711 13.5878 31.4473 12.1639 29.6895 12.1639H3.5332C1.77539 12.1815 0.351562 13.6053 0.351562 15.3456V74.6366C0.351562 76.3944 1.77539 77.8182 3.5332 77.8182H73.9688C75.7266 77.8182 77.1504 76.3944 77.1504 74.6366V21.7089C77.1504 19.9511 75.7266 18.5272 73.9688 18.5272H36.0527C34.2949 18.5272 32.8711 17.1034 32.8711 15.3456Z" fill="#0D0E16"/>
</mask>
<g mask="url(#mask0_4356_53295)">
<g opacity="0.6" filter="url(#filter0_f_4356_53295)">
<ellipse cx="3.85155" cy="17.6738" rx="34.7825" ry="35.9227" transform="rotate(-120 3.85155 17.6738)" fill="url(#paint0_linear_4356_53295)"/>
</g>
</g>
<path d="M73.9688 18.5273H36.0527C34.2949 18.5273 32.8711 17.1035 32.8711 15.3457C32.8711 13.5879 31.4648 12.1816 29.707 12.1816H3.5332C1.77539 12.1816 0.351562 13.6055 0.351562 15.3457V16.9629C0.351562 15.2051 1.77539 13.7812 3.5332 13.7812H29.707C31.4648 13.7812 32.8887 15.2051 32.8887 16.9629C32.8887 18.7207 34.3125 20.1445 36.0703 20.1445H73.9863C75.7441 20.1445 77.168 21.5684 77.168 23.3262V21.709C77.1504 19.9512 75.7266 18.5273 73.9688 18.5273Z" fill="#75797E"/>
<path d="M57.4097 29.8125L57.4273 29.7598C57.8316 28.3359 59.1499 27.334 60.6089 27.334H86.5894C88.646 27.334 90.0874 29.2676 89.5249 31.2715L76.9741 75.3926C76.5698 76.8164 75.2515 77.8184 73.7925 77.8184H3.55031C1.49367 77.8184 0.0522586 75.8848 0.614759 73.8809L11.7769 34.6465C12.1812 33.2227 13.4995 32.2207 14.9585 32.2207H54.2456C55.687 32.2383 57.0054 31.2363 57.4097 29.8125Z" fill="#75797E"/>
<path d="M0.600022 75.2695L11.7621 36.0352C12.1664 34.6113 13.4848 33.6094 14.9438 33.6094H54.2309C55.6899 33.6094 57.0082 32.6074 57.4125 31.1836L57.4301 31.1309C57.8344 29.707 59.1528 28.7051 60.6117 28.7051H86.5922C88.0863 28.7051 89.2465 29.7246 89.5629 31.0605C89.9848 29.127 88.5785 27.334 86.5922 27.334H60.6117C59.1528 27.334 57.8344 28.3359 57.4301 29.7598L57.4125 29.8125C57.0082 31.2363 55.6899 32.2383 54.2309 32.2383H14.9438C13.4848 32.2383 12.1664 33.2402 11.7621 34.6641L0.600022 73.8984C0.441819 74.4434 0.441819 74.9883 0.564866 75.4805C0.582444 75.4102 0.582444 75.3398 0.600022 75.2695Z" fill="#95959C"/>
<mask id="mask1_4356_53295" style="mask-type:alpha" maskUnits="userSpaceOnUse" x="0" y="27" width="90" height="51">
<path d="M57.4097 29.8125L57.4273 29.7598C57.8316 28.3359 59.1499 27.334 60.6089 27.334H86.5894C88.646 27.334 90.0874 29.2676 89.5249 31.2715L76.9741 75.3926C76.5698 76.8164 75.2515 77.8184 73.7925 77.8184H3.55031C1.49367 77.8184 0.0522586 75.8848 0.614759 73.8809L11.7769 34.6465C12.1812 33.2227 13.4995 32.2207 14.9585 32.2207H54.2456C55.687 32.2383 57.0054 31.2363 57.4097 29.8125Z" fill="#75797E"/>
</mask>
<g mask="url(#mask1_4356_53295)">
<g opacity="0.6" filter="url(#filter1_f_4356_53295)">
<ellipse cx="83.4805" cy="77.7911" rx="34.7825" ry="35.9227" transform="rotate(-120 83.4805 77.7911)" fill="url(#paint1_linear_4356_53295)"/>
</g>
<path opacity="0.6" d="M64.9678 21.3115C65.6582 20.6251 66.7472 20.5818 67.4873 21.1826L67.6299 21.3115L81.2939 34.8965C81.99 35.5885 82.033 36.6878 81.4238 37.4307L81.2939 37.5742L67.1475 51.6357C65.2097 53.5618 66.5735 56.8682 69.3057 56.8682H79.458C79.8946 56.8682 80.316 57.0195 80.6514 57.293L80.7891 57.418L98.4688 74.9961C99.1643 75.688 99.2082 76.7866 98.5996 77.5293L98.4688 77.6729L84.8105 91.2578C84.1205 91.9442 83.0322 91.9879 82.292 91.3877L82.1484 91.2588L65.4639 74.6748C64.307 73.525 62.4606 73.4893 61.2607 74.5674L61.1465 74.6758L44.4687 91.2578C43.7783 91.9443 42.6893 91.9875 41.9492 91.3867L41.8066 91.2578L28.1475 77.6729C27.4517 76.9808 27.4086 75.8814 28.0176 75.1387L28.1475 74.9951L42.293 60.9268C44.2295 59.0004 42.8653 55.6944 40.1338 55.6943H29.9775C29.5413 55.6943 29.1204 55.5437 28.7852 55.2705L28.6465 55.1455L10.9687 37.5742C10.2725 36.8822 10.2286 35.783 10.8379 35.04L10.9678 34.8965L24.6318 21.3115C25.3222 20.6251 26.4113 20.5818 27.1514 21.1826L27.2939 21.3115L43.9727 37.8936C45.1295 39.0438 46.9758 39.0803 48.1758 38.002L48.29 37.8936L64.9678 21.3115Z" stroke="url(#paint2_linear_4356_53295)" stroke-width="1.17391"/>
</g>
<defs>
<filter id="filter0_f_4356_53295" x="-64.8983" y="-50.5051" width="137.5" height="136.358" filterUnits="userSpaceOnUse" color-interpolation-filters="sRGB">
<feFlood flood-opacity="0" result="BackgroundImageFix"/>
<feBlend mode="normal" in="SourceGraphic" in2="BackgroundImageFix" result="shape"/>
<feGaussianBlur stdDeviation="16.5512" result="effect1_foregroundBlur_4356_53295"/>
</filter>
<filter id="filter1_f_4356_53295" x="14.7306" y="9.61216" width="137.5" height="136.358" filterUnits="userSpaceOnUse" color-interpolation-filters="sRGB">
<feFlood flood-opacity="0" result="BackgroundImageFix"/>
<feBlend mode="normal" in="SourceGraphic" in2="BackgroundImageFix" result="shape"/>
<feGaussianBlur stdDeviation="16.5512" result="effect1_foregroundBlur_4356_53295"/>
</filter>
<linearGradient id="paint0_linear_4356_53295" x1="7.49408" y1="32.9467" x2="-30.931" y2="17.6738" gradientUnits="userSpaceOnUse">
<stop stop-color="#FFFBF2"/>
<stop offset="1" stop-color="#FFFBF2" stop-opacity="0"/>
</linearGradient>
<linearGradient id="paint1_linear_4356_53295" x1="87.123" y1="93.064" x2="48.6979" y2="77.7911" gradientUnits="userSpaceOnUse">
<stop stop-color="#FFFBF2"/>
<stop offset="1" stop-color="#FFFBF2" stop-opacity="0"/>
</linearGradient>
<linearGradient id="paint2_linear_4356_53295" x1="54.7181" y1="19.1602" x2="54.7181" y2="93.4096" gradientUnits="userSpaceOnUse">
<stop stop-color="#7B6EFF"/>
<stop offset="0.545" stop-color="#E1C8CF"/>
<stop offset="1" stop-color="#EAAB80"/>
</linearGradient>
</defs>
</svg>
