<svg width="240" height="70" viewBox="0 0 240 70" fill="none" xmlns="http://www.w3.org/2000/svg">
<path d="M2.05859 63.5643C13.5346 58.3493 38.9459 56.105 48.7825 56.9125C61.0782 57.9218 70.9148 38.8267 81.3662 34.2846C91.8176 29.7426 121.942 13.0882 137.312 14.0976C152.682 15.1069 188.954 19.1442 196.331 14.0976C202.233 10.0603 226.661 4.00419 238.137 1.4808" stroke="url(#paint0_linear_5361_574)" stroke-width="2.45915" stroke-linecap="round"/>
<mask id="mask0_5361_574" style="mask-type:alpha" maskUnits="userSpaceOnUse" x="2" y="1" width="237" height="68">
<path d="M48.7825 29.7426C38.9459 28.9351 13.5346 39.1632 2.05859 44.3782V68.6028H238.137V1.4808C226.661 4.00419 202.233 10.0603 196.331 14.0976C188.954 19.1442 152.682 15.1069 137.312 14.0976C121.942 13.0882 91.8176 29.7426 81.3662 34.2846C70.9148 38.8267 61.0782 30.7519 48.7825 29.7426Z" fill="url(#paint1_linear_5361_574)"/>
</mask>
<g mask="url(#mask0_5361_574)">
<path d="M48.7825 29.7426C38.9459 28.9351 13.5346 39.1632 2.05859 44.3782V68.6028H238.137V1.4808C226.661 4.00419 202.233 10.0603 196.331 14.0976C188.954 19.1442 152.682 15.1069 137.312 14.0976C121.942 13.0882 91.8176 29.7426 81.3662 34.2846C70.9148 38.8267 61.0782 30.7519 48.7825 29.7426Z" fill="url(#paint2_linear_5361_574)"/>
</g>
<line x1="26.0376" y1="68.4926" x2="26.0376" y2="2.09557" stroke="#DDDDDD" stroke-width="1.22958" stroke-linecap="round" stroke-dasharray="6.15 6.15"/>
<line x1="65.3852" y1="68.4926" x2="65.3852" y2="2.09557" stroke="#DDDDDD" stroke-width="1.22958" stroke-linecap="round" stroke-dasharray="6.15 6.15"/>
<line x1="104.729" y1="68.4926" x2="104.729" y2="2.09557" stroke="#DDDDDD" stroke-width="1.22958" stroke-linecap="round" stroke-dasharray="6.15 6.15"/>
<line x1="144.077" y1="68.4926" x2="144.077" y2="2.09557" stroke="#DDDDDD" stroke-width="1.22958" stroke-linecap="round" stroke-dasharray="6.15 6.15"/>
<line x1="183.424" y1="68.4926" x2="183.424" y2="2.09557" stroke="#DDDDDD" stroke-width="1.22958" stroke-linecap="round" stroke-dasharray="6.15 6.15"/>
<line x1="222.768" y1="68.4926" x2="222.768" y2="2.09557" stroke="#DDDDDD" stroke-width="1.22958" stroke-linecap="round" stroke-dasharray="6.15 6.15"/>
<defs>
<linearGradient id="paint0_linear_5361_574" x1="-2.85971" y1="50.4344" x2="235.945" y2="9.98922" gradientUnits="userSpaceOnUse">
<stop stop-color="#FFC68A" stop-opacity="0"/>
<stop offset="1" stop-color="#FFC68A"/>
</linearGradient>
<linearGradient id="paint1_linear_5361_574" x1="128.705" y1="6.02289" x2="122.884" y2="72.8827" gradientUnits="userSpaceOnUse">
<stop stop-color="#FFC68A"/>
<stop offset="1" stop-color="#FFC68A" stop-opacity="0"/>
</linearGradient>
<linearGradient id="paint2_linear_5361_574" x1="159.444" y1="6.0229" x2="131.175" y2="77.0491" gradientUnits="userSpaceOnUse">
<stop stop-color="#FFC68A"/>
<stop offset="1" stop-color="#FFC68A" stop-opacity="0"/>
</linearGradient>
</defs>
</svg>
