<svg width="34" height="40" viewBox="0 0 34 40" fill="none" xmlns="http://www.w3.org/2000/svg">
<g opacity="0.5" clip-path="url(#clip0_4225_21012)" filter="url(#filter0_f_4225_21012)">
<path d="M25.2176 20.5909C24.66 19.8699 23.8186 19.3747 22.6935 19.1056C24.1263 18.3747 24.7559 17.1343 24.583 15.3841C24.5253 14.7494 24.3499 14.1994 24.0564 13.7332C23.7628 13.2668 23.3666 12.8919 22.8663 12.6083C22.3664 12.3244 21.8226 12.1082 21.2364 11.9592C20.65 11.8101 19.9767 11.7019 19.2171 11.6347V8H16.9961V11.5337C16.6115 11.5337 16.025 11.5433 15.2366 11.5625V8H13.0153V11.6347C12.6979 11.6443 12.2316 11.6492 11.6163 11.6492L8.55859 11.6347V14.0001H10.1595C10.8903 14.0001 11.3181 14.3271 11.4431 14.9809V19.1205C11.5394 19.1205 11.6163 19.1254 11.674 19.135H11.4431V24.9329C11.3663 25.4232 11.0875 25.6686 10.6066 25.6686H9.00588L8.55869 28.3081H11.4434C11.6261 28.3081 11.8904 28.3105 12.2367 28.3149C12.5828 28.3197 12.8423 28.3221 13.0154 28.3221V32H15.237V28.3654C15.6408 28.3752 16.2273 28.3799 16.9965 28.3799V32H19.2176V28.3221C20.0062 28.2837 20.7057 28.212 21.316 28.1059C21.9266 27.9997 22.5109 27.8341 23.0685 27.608C23.626 27.3822 24.0923 27.1008 24.4672 26.7642C24.8424 26.428 25.1522 25.9999 25.3978 25.4805C25.6426 24.9612 25.7991 24.3602 25.8662 23.6774C25.9917 22.3412 25.7752 21.3122 25.2176 20.5909ZM15.2798 14.1584C15.3471 14.1584 15.537 14.1559 15.8495 14.1511C16.1622 14.1461 16.4217 14.1414 16.6284 14.1365C16.8352 14.1318 17.114 14.1438 17.4651 14.1727C17.8161 14.2015 18.1117 14.24 18.352 14.288C18.5924 14.336 18.857 14.4154 19.1452 14.526C19.4339 14.6365 19.6645 14.7711 19.8374 14.9298C20.0106 15.0884 20.1573 15.2904 20.2772 15.5356C20.3976 15.7808 20.4577 16.062 20.4577 16.3793C20.4577 16.6486 20.4145 16.8938 20.3281 17.1151C20.2418 17.3362 20.1116 17.5214 19.9388 17.6704C19.7658 17.8195 19.5876 17.9494 19.4049 18.0599C19.2224 18.1704 18.989 18.2594 18.7054 18.3266C18.4219 18.394 18.1743 18.4468 17.9629 18.4852C17.7513 18.5237 17.487 18.5503 17.1696 18.5646C16.8522 18.5789 16.6117 18.5888 16.4484 18.5935C16.2848 18.5982 16.0613 18.5982 15.7776 18.5935C15.4938 18.5888 15.3281 18.5862 15.2799 18.5862V14.1583L15.2798 14.1584ZM21.345 23.9804C21.2534 24.2017 21.1358 24.3941 20.9917 24.5577C20.8473 24.7209 20.6573 24.8653 20.4218 24.9901C20.1864 25.1153 19.9578 25.2161 19.7368 25.293C19.5156 25.3703 19.2486 25.4372 18.9364 25.4951C18.6235 25.5528 18.3497 25.5934 18.1138 25.6176C17.8784 25.6417 17.5972 25.6609 17.2702 25.6754C16.9434 25.6896 16.6884 25.6969 16.5058 25.6969C16.3231 25.6969 16.0923 25.6943 15.8134 25.6896C15.5344 25.6851 15.3567 25.6827 15.2797 25.6827V20.8074C15.3565 20.8074 15.5849 20.8027 15.9648 20.7929C16.3448 20.7832 16.6547 20.7787 16.8951 20.7787C17.1355 20.7787 17.4673 20.7929 17.8906 20.822C18.3134 20.8506 18.6692 20.8937 18.9579 20.9514C19.2463 21.0092 19.5609 21.098 19.9025 21.2183C20.2438 21.3385 20.5204 21.4851 20.732 21.6581C20.9436 21.8315 21.1213 22.0523 21.2655 22.3216C21.4101 22.5908 21.4821 22.8986 21.4821 23.2448C21.4821 23.5143 21.4365 23.7591 21.345 23.9804Z" fill="url(#paint0_linear_4225_21012)"/>
</g>
<defs>
<filter id="filter0_f_4225_21012" x="-3" y="0" width="40.457" height="40" filterUnits="userSpaceOnUse" color-interpolation-filters="sRGB">
<feFlood flood-opacity="0" result="BackgroundImageFix"/>
<feBlend mode="normal" in="SourceGraphic" in2="BackgroundImageFix" result="shape"/>
<feGaussianBlur stdDeviation="4" result="effect1_foregroundBlur_4225_21012"/>
</filter>
<linearGradient id="paint0_linear_4225_21012" x1="17.2297" y1="8" x2="17.2297" y2="32" gradientUnits="userSpaceOnUse">
<stop stop-color="#FEC28E"/>
<stop offset="1" stop-color="#FFD37A"/>
</linearGradient>
<clipPath id="clip0_4225_21012">
<rect width="24.4575" height="24" fill="white" transform="translate(5 8)"/>
</clipPath>
</defs>
</svg>
