<svg width="68" height="81" viewBox="0 0 68 81" fill="none" xmlns="http://www.w3.org/2000/svg">
<g opacity="0.5" clip-path="url(#clip0_4225_20639)" filter="url(#filter0_f_4225_20639)">
<path d="M50.1617 42.0464C49.0465 40.6044 47.3638 39.6139 45.1135 39.0756C47.9791 37.6139 49.2384 35.1331 48.8927 31.6327C48.7771 30.3633 48.4263 29.2633 47.8394 28.3308C47.2522 27.3981 46.4598 26.6483 45.4591 26.0811C44.4593 25.5132 43.3718 25.0809 42.1993 24.7828C41.0265 24.4848 39.68 24.2683 38.1607 24.1339V16.8645H33.7187V23.9319C32.9495 23.9319 31.7765 23.9511 30.1997 23.9896V16.8645H25.7572V24.1339C25.1224 24.1532 24.1898 24.163 22.9591 24.163L16.8438 24.1339V28.8648H20.0455C21.5071 28.8648 22.3629 29.5188 22.6128 30.8263V39.1054C22.8054 39.1054 22.9591 39.1153 23.0746 39.1345H22.6128V50.7303C22.4591 51.7109 21.9015 52.2016 20.9399 52.2016H17.7383L16.844 57.4807H22.6133C22.9788 57.4807 23.5073 57.4855 24.1999 57.4942C24.8921 57.5039 25.4111 57.5088 25.7574 57.5088V64.8645H30.2006V57.5952C31.0081 57.6149 32.1812 57.6243 33.7196 57.6243V64.8645H38.1617V57.5088C39.739 57.432 41.1379 57.2885 42.3585 57.0762C43.5798 56.8639 44.7483 56.5327 45.8635 56.0805C46.9785 55.6289 47.9111 55.066 48.661 54.3929C49.4113 53.7204 50.0309 52.8642 50.5222 51.8256C51.0118 50.7869 51.3247 49.585 51.4589 48.2193C51.7099 45.5469 51.277 43.489 50.1617 42.0464ZM30.2861 29.1812C30.4208 29.1812 30.8006 29.1764 31.4256 29.1667C32.0509 29.1568 32.5699 29.1473 32.9834 29.1376C33.3969 29.1281 33.9546 29.1521 34.6568 29.2098C35.3587 29.2675 35.95 29.3446 36.4306 29.4406C36.9113 29.5366 37.4406 29.6953 38.017 29.9165C38.5944 30.1374 39.0557 30.4068 39.4014 30.724C39.7479 31.0413 40.0411 31.4453 40.281 31.9358C40.5217 32.4261 40.6419 32.9886 40.6419 33.6231C40.6419 34.1616 40.5555 34.6521 40.3827 35.0947C40.2101 35.5369 39.9498 35.9072 39.6041 36.2053C39.2582 36.5034 38.9018 36.7633 38.5363 36.9843C38.1713 37.2052 37.7045 37.3832 37.1374 37.5177C36.5704 37.6524 36.0752 37.7582 35.6524 37.835C35.2292 37.912 34.7005 37.965 34.0658 37.9937C33.431 38.0224 32.95 38.042 32.6233 38.0515C32.2962 38.061 31.8493 38.061 31.2817 38.0515C30.7141 38.042 30.3828 38.037 30.2864 38.037V29.1811L30.2861 29.1812ZM42.4165 48.8254C42.2334 49.2679 41.9981 49.6528 41.7099 49.9799C41.4211 50.3063 41.0411 50.595 40.5702 50.8447C40.0994 51.0951 39.6422 51.2966 39.2002 51.4505C38.7577 51.605 38.2238 51.7389 37.5994 51.8547C36.9736 51.9702 36.4259 52.0514 35.9543 52.0998C35.4833 52.148 34.9211 52.1863 34.2669 52.2154C33.6133 52.2437 33.1034 52.2583 32.7382 52.2583C32.3727 52.2583 31.9111 52.2531 31.3534 52.2437C30.7953 52.2347 30.4399 52.2298 30.2859 52.2298V42.4793C30.4396 42.4793 30.8964 42.4699 31.6562 42.4503C32.4161 42.4309 33.0359 42.4219 33.5168 42.4219C33.9975 42.4219 34.6612 42.4503 35.5077 42.5084C36.3533 42.5657 37.0649 42.6519 37.6424 42.7673C38.2191 42.8829 38.8484 43.0605 39.5316 43.3011C40.2141 43.5414 40.7673 43.8346 41.1906 44.1808C41.6137 44.5275 41.9692 44.9691 42.2576 45.5078C42.5467 46.0461 42.6908 46.6616 42.6908 47.3541C42.6907 47.8931 42.5995 48.3828 42.4165 48.8254Z" fill="url(#paint0_linear_4225_20639)"/>
</g>
<defs>
<filter id="filter0_f_4225_20639" x="-6.27148" y="0.864746" width="80.9141" height="80" filterUnits="userSpaceOnUse" color-interpolation-filters="sRGB">
<feFlood flood-opacity="0" result="BackgroundImageFix"/>
<feBlend mode="normal" in="SourceGraphic" in2="BackgroundImageFix" result="shape"/>
<feGaussianBlur stdDeviation="8" result="effect1_foregroundBlur_4225_20639"/>
</filter>
<linearGradient id="paint0_linear_4225_20639" x1="34.1859" y1="16.8645" x2="34.1859" y2="64.8645" gradientUnits="userSpaceOnUse">
<stop stop-color="#FEC28E"/>
<stop offset="1" stop-color="#FFD37A"/>
</linearGradient>
<clipPath id="clip0_4225_20639">
<rect width="48.9149" height="48" fill="white" transform="translate(9.72852 16.8647)"/>
</clipPath>
</defs>
</svg>
