<svg width="48" height="48" viewBox="0 0 48 48" fill="none" xmlns="http://www.w3.org/2000/svg">
<circle cx="24" cy="23.9996" r="24" fill="#181928"/>
<circle cx="24.0014" cy="23.9995" r="21.2987" fill="#181928" stroke="url(#paint0_linear_4347_38602)" stroke-width="0.831169"/>
<path opacity="0.6" d="M31.2568 -0.762604C31.7456 -1.24857 32.517 -1.27963 33.041 -0.854401L33.1426 -0.762604L42.8164 8.85654C43.3091 9.34652 43.3404 10.1246 42.9092 10.6505L42.8164 10.752L32.7998 20.7071C31.4278 22.0708 32.3938 24.4131 34.3281 24.4132H41.5166C41.8255 24.4132 42.1239 24.5195 42.3613 24.713L42.459 24.8018L54.9766 37.2472C55.4692 37.737 55.5003 38.5151 55.0693 39.0411L54.9775 39.1427L45.3066 48.7618C44.818 49.2478 44.0475 49.2786 43.5234 48.8536L43.4219 48.7628L31.6084 37.0206C30.8156 36.2326 29.5656 36.1835 28.7158 36.8731L28.5518 37.0206L16.7432 48.7618C16.2542 49.2479 15.483 49.2783 14.959 48.8526L14.8574 48.7618L5.1875 39.1427C4.69492 38.6527 4.6636 37.8746 5.09473 37.3487L5.1875 37.2472L15.2021 27.2862C16.5734 25.9223 15.6078 23.5822 13.6738 23.5821L6.48242 23.5821C6.17369 23.582 5.87597 23.4747 5.63867 23.2813L5.54102 23.1935L-6.97656 10.752C-7.46934 10.2622 -7.50025 9.4841 -7.06934 8.9581L-6.97656 8.85654L2.69824 -0.762604C3.18697 -1.24854 3.95745 -1.27954 4.48145 -0.854401L4.58301 -0.762604L16.3916 10.9786C17.1843 11.7666 18.4344 11.8157 19.2842 11.1261L19.4482 10.9786L31.2568 -0.762604Z" stroke="url(#paint1_linear_4347_38602)" stroke-width="0.831169"/>
<path d="M35.0186 26.9354C34.7099 26.1693 34.2285 25.5152 33.5744 24.9743C32.9203 24.4334 32.0775 24.0504 31.0427 23.8251C32.2548 23.3265 33.1524 22.5924 33.7345 21.6239C34.3165 20.6553 34.6081 19.5587 34.6081 18.3351C34.6081 15.9589 33.6933 14.1705 31.8626 12.9698C30.7065 12.2117 29.2645 11.6937 27.5355 11.4147H27.7208V6.76633L24.862 6.76633V11.178C24.6493 11.1722 24.4344 11.17 24.216 11.17H22.6516V6.76747H19.7929V11.17H12.4688V14.8417L15.1606 15.4123L15.1606 32.8999L12.4687 33.4705L12.4687 37.1252H19.7929V41.0725H22.6516V37.1252H24.862V41.0725H27.7208V37.0131C29.9014 36.7775 31.6396 36.1681 32.9329 35.1824C34.6321 33.8868 35.4817 31.968 35.4817 29.4248C35.4817 28.534 35.3274 27.705 35.0186 26.9377V26.9354ZM27.3263 16.6851C28.0089 17.1779 28.3509 17.9658 28.3509 19.0464C28.3509 20.0332 27.9849 20.7605 27.2542 21.2305C26.5235 21.7005 25.4212 21.9349 23.9472 21.9349H21.4155V15.9452L24.2137 15.9452C25.6042 15.9452 26.6413 16.1922 27.324 16.6851H27.3263ZM28.3246 31.6318C27.7002 32.1189 26.7705 32.3625 25.5344 32.3625H21.4167V26.0698H25.8374C26.6459 26.0698 27.2988 26.1921 27.7985 26.4357C28.2971 26.6793 28.6665 27.0475 28.9043 27.5415C29.1422 28.0343 29.2611 28.6553 29.2611 29.4042C29.2611 30.4025 28.9489 31.1458 28.3257 31.6329L28.3246 31.6318Z" fill="white"/>
<defs>
<linearGradient id="paint0_linear_4347_38602" x1="24.0014" y1="45.7138" x2="1.67927" y2="6.71148" gradientUnits="userSpaceOnUse">
<stop stop-color="#7B6EFF"/>
<stop offset="0.65819" stop-color="#E1C8CF"/>
<stop offset="1" stop-color="#FFD37A"/>
</linearGradient>
<linearGradient id="paint1_linear_4347_38602" x1="24" y1="-2.28604" x2="24" y2="50.2854" gradientUnits="userSpaceOnUse">
<stop stop-color="#7B6EFF"/>
<stop offset="0.545" stop-color="#E1C8CF"/>
<stop offset="1" stop-color="#EAAB80"/>
</linearGradient>
</defs>
</svg>
