<svg width="312" height="189" viewBox="0 0 312 189" fill="none" xmlns="http://www.w3.org/2000/svg">
<g clip-path="url(#clip0_4225_20553)">
<path opacity="0.2" d="M368.814 227.416C372.938 231.52 372.938 238.195 368.815 242.3L313.948 296.922C309.853 301 303.232 301.001 299.135 296.925L231.854 229.993C227.368 225.53 220.118 225.531 215.632 229.995L148.378 296.922C144.281 300.999 137.659 300.999 133.563 296.921L78.6965 242.298C74.5738 238.194 74.5739 231.52 78.6967 227.416L134.729 171.636C141.999 164.399 136.874 151.986 126.616 151.986H87.3122C84.5369 151.986 81.8744 150.887 79.9069 148.93L8.19038 77.5856C4.06458 73.4812 4.064 66.8041 8.1891 62.699L63.0784 8.07602C67.1747 3.99955 73.7951 3.99955 77.8915 8.07601L145.146 75.0038C149.632 79.4685 156.883 79.4685 161.369 75.0039L228.624 8.07601C232.72 3.99955 239.34 3.99954 243.437 8.07601L298.326 62.699C302.451 66.8041 302.45 73.4812 298.325 77.5856L242.286 133.333C235.013 140.569 240.137 152.986 250.397 152.986H289.687C292.463 152.986 295.126 154.085 297.093 156.043L368.814 227.416Z" fill="url(#paint0_linear_4225_20553)" stroke="url(#paint1_linear_4225_20553)"/>
</g>
<defs>
<linearGradient id="paint0_linear_4225_20553" x1="188.5" y1="0" x2="188.5" y2="305" gradientUnits="userSpaceOnUse">
<stop stop-color="#7B6EFF"/>
<stop offset="0.545" stop-color="#E1C8CF"/>
<stop offset="1" stop-color="#EAAB80"/>
</linearGradient>
<linearGradient id="paint1_linear_4225_20553" x1="188.5" y1="0" x2="188.5" y2="305" gradientUnits="userSpaceOnUse">
<stop/>
<stop offset="1" stop-color="#666666"/>
</linearGradient>
<clipPath id="clip0_4225_20553">
<path d="M0 0H312V157C312 174.673 297.673 189 280 189H0V0Z" fill="white"/>
</clipPath>
</defs>
</svg>
