<svg width="160" height="31" viewBox="0 0 160 31" fill="none" xmlns="http://www.w3.org/2000/svg">
<path d="M36.3375 23.4768L29.5465 30.2706L21.5656 22.2924L13.5875 30.2706L6.79648 23.4768L14.7719 15.4986H7.97812L0 7.52314L6.79376 0.729309L14.7719 8.70751L22.75 0.729309L29.5438 7.52314L21.5656 15.4986H28.3594L36.3375 23.4768Z" fill="#1F1F1F"/>
<path d="M59.4604 25.3779L52.6585 16.2316L45.8837 25.3779H44.1914L51.7838 15.1885L44.7265 5.61847H46.4189L52.7128 14.1155L59.0068 5.61847H60.6149L53.5576 15.1586L61.15 25.3752H59.4577L59.4604 25.3779Z" fill="#1F1F1F"/>
<path d="M67.8583 24.7725C66.549 24.2754 65.5303 23.6289 64.7969 22.8384L65.4461 21.7654C66.1415 22.4988 67.0787 23.0964 68.2549 23.5582C69.4311 24.02 70.6671 24.2509 71.9655 24.2509C73.848 24.2509 75.2687 23.8951 76.2276 23.1779C77.1865 22.4635 77.6673 21.5318 77.6673 20.3827C77.6673 19.4971 77.4119 18.7936 76.904 18.2666C76.396 17.7396 75.7658 17.3348 75.0133 17.0523C74.2609 16.7698 73.2449 16.4792 71.9655 16.1776C70.5177 15.8218 69.355 15.4714 68.4803 15.1345C67.6057 14.7977 66.8614 14.2734 66.2502 13.5671C65.639 12.8609 65.332 11.9155 65.332 10.7312C65.332 9.77227 65.5874 8.89214 66.0953 8.09079C66.6033 7.29215 67.3802 6.65651 68.4233 6.18656C69.4664 5.71662 70.7703 5.48029 72.3322 5.48029C73.4242 5.48029 74.4945 5.64056 75.5512 5.9611C76.6051 6.28164 77.5179 6.71355 78.2893 7.25956L77.7542 8.41676C76.9637 7.87076 76.0945 7.45786 75.1437 7.17535C74.193 6.89284 73.2558 6.75158 72.3349 6.75158C70.5095 6.75158 69.1268 7.1183 68.187 7.85174C67.2471 8.58518 66.7744 9.53594 66.7744 10.7013C66.7744 11.5869 67.0298 12.2904 67.5377 12.8174C68.0457 13.3444 68.6759 13.7491 69.4284 14.0317C70.1808 14.3142 71.2076 14.6157 72.5061 14.9335C73.9539 15.2921 75.1111 15.6398 75.9777 15.9766C76.8442 16.3162 77.5831 16.8296 78.1943 17.5141C78.8054 18.2014 79.1124 19.1277 79.1124 20.2931C79.1124 21.252 78.8543 22.1267 78.3355 22.9171C77.8167 23.7076 77.0235 24.3378 75.9505 24.8078C74.8775 25.2777 73.56 25.5141 71.9981 25.5141C70.5503 25.5141 69.1703 25.2642 67.8637 24.767L67.8583 24.7725Z" fill="#1F1F1F"/>
<path d="M89.4952 6.92035H82.3809V5.62189H98.0464V6.92035H90.9321V25.3813H89.4924V6.92035H89.4952Z" fill="#1F1F1F"/>
<path d="M114.841 19.8173H103.38L100.867 25.3779H99.3164L108.406 5.61847H109.845L118.934 25.3779H117.383L114.843 19.8173H114.841ZM114.303 18.6031L109.109 7.19944L103.942 18.6031H114.3H114.303Z" fill="#1F1F1F"/>
<path d="M130.392 15.6401L125.961 20.1847V25.3786H124.521V5.62189H125.961V18.324L138.296 5.62189H140.046L131.353 14.597L140.641 25.3786H138.891L130.394 15.6401H130.392Z" fill="#1F1F1F"/>
<path d="M160.001 24.0801V25.3786H146.367V5.62189H159.577V6.92035H147.807V14.7111H158.336V15.9824H147.807V24.0828H160.001V24.0801Z" fill="#1F1F1F"/>
</svg>
