<svg width="184" height="35" viewBox="0 0 184 35" fill="none" xmlns="http://www.w3.org/2000/svg">
<path d="M41.7882 26.6379L33.9785 34.4508L24.8005 25.2759L15.6257 34.4508L7.81596 26.6379L16.9877 17.4631H9.17485L0 8.29135L7.81284 0.478516L16.9877 9.65337L26.1625 0.478516L33.9754 8.29135L24.8005 17.4631H32.6134L41.7882 26.6379Z" fill="#FEFEFE"/>
<path d="M68.3797 28.8242L60.5575 18.3061L52.7665 28.8242H50.8203L59.5516 17.1065L51.4357 6.10107H53.3819L60.6199 15.8726L67.858 6.10107H69.7073L61.5915 17.0722L70.3227 28.8211H68.3766L68.3797 28.8242Z" fill="#FEFEFE"/>
<path d="M78.0362 28.1277C76.5305 27.5561 75.3591 26.8126 74.5156 25.9035L75.2622 24.6696C76.0619 25.513 77.1397 26.2003 78.4923 26.7313C79.845 27.2624 81.2663 27.5279 82.7596 27.5279C84.9244 27.5279 86.5582 27.1187 87.6609 26.294C88.7637 25.4724 89.3166 24.4009 89.3166 23.0795C89.3166 22.0611 89.0229 21.2521 88.4388 20.646C87.8546 20.04 87.1299 19.5745 86.2646 19.2496C85.3992 18.9248 84.2309 18.5905 82.7596 18.2438C81.0945 17.8345 79.7575 17.4315 78.7516 17.0442C77.7457 16.6568 76.8898 16.0539 76.1869 15.2417C75.484 14.4295 75.131 13.3424 75.131 11.9804C75.131 10.8776 75.4247 9.86549 76.0088 8.94395C76.593 8.02553 77.4864 7.29454 78.686 6.7541C79.8856 6.21367 81.385 5.94189 83.1813 5.94189C84.4371 5.94189 85.6679 6.1262 86.8831 6.49482C88.0952 6.86344 89.1448 7.36014 90.032 7.98804L89.4166 9.31881C88.5075 8.69091 87.5079 8.21608 86.4145 7.8912C85.3211 7.56631 84.2434 7.40387 83.1844 7.40387C81.0852 7.40387 79.4951 7.8256 78.4142 8.66905C77.3334 9.51249 76.7898 10.6059 76.7898 11.946C76.7898 12.9644 77.0835 13.7735 77.6676 14.3795C78.2518 14.9855 78.9765 15.451 79.8418 15.7759C80.7072 16.1008 81.888 16.4475 83.3812 16.813C85.0462 17.2254 86.377 17.6252 87.3735 18.0126C88.3701 18.4031 89.2198 18.9935 89.9226 19.7807C90.6255 20.571 90.9785 21.6363 90.9785 22.9764C90.9785 24.0792 90.6817 25.0851 90.0851 25.9941C89.4884 26.9032 88.5762 27.6279 87.3423 28.1683C86.1084 28.7088 84.5933 28.9805 82.797 28.9805C81.132 28.9805 79.5451 28.6931 78.0425 28.1215L78.0362 28.1277Z" fill="#FEFEFE"/>
<path d="M102.918 7.59771H94.7363V6.10449H112.752V7.59771H104.57V28.8276H102.915V7.59771H102.918Z" fill="#FEFEFE"/>
<path d="M132.066 22.4296H118.886L115.997 28.8242H114.213L124.665 6.10107H126.321L136.774 28.8242H134.99L132.069 22.4296H132.066ZM131.447 21.0332L125.475 7.91918L119.533 21.0332H131.444H131.447Z" fill="#FEFEFE"/>
<path d="M149.95 17.6254L144.855 22.8516V28.8245H143.199V6.10449H144.855V20.7118L159.04 6.10449H161.052L151.056 16.4258L161.736 28.8245H159.725L149.953 17.6254H149.95Z" fill="#FEFEFE"/>
<path d="M184.001 27.3313V28.8245H168.322V6.10449H183.514V7.59771H169.978V16.557H182.086V18.019H169.978V27.3344H184.001V27.3313Z" fill="#FEFEFE"/>
</svg>
