<svg width="48" height="48" viewBox="0 0 48 48" fill="none" xmlns="http://www.w3.org/2000/svg">
<g clip-path="url(#clip0_4225_20615)">
<path d="M24 4C12.96 4 4 12.96 4 24C4 35.04 12.96 44 24 44C35.04 44 44 35.04 44 24C44 12.96 35.04 4 24 4ZM26.82 36.18V37.34C26.82 38.8 25.62 40 24.16 40H24.14C22.68 40 21.48 38.8 21.48 37.34V36.14C18.82 35.58 16.46 34.12 15.46 31.66C15 30.56 15.86 29.34 17.06 29.34H17.54C18.28 29.34 18.88 29.84 19.16 30.54C19.74 32.04 21.26 33.08 24.18 33.08C28.1 33.08 28.98 31.12 28.98 29.9C28.98 28.24 28.1 26.68 23.64 25.62C18.68 24.42 15.28 22.38 15.28 18.28C15.28 14.84 18.06 12.6 21.5 11.86V10.66C21.5 9.2 22.7 8 24.16 8H24.18C25.64 8 26.84 9.2 26.84 10.66V11.9C29.6 12.58 31.34 14.3 32.1 16.42C32.5 17.52 31.66 18.68 30.48 18.68H29.96C29.22 18.68 28.62 18.16 28.42 17.44C27.96 15.92 26.7 14.94 24.18 14.94C21.18 14.94 19.38 16.3 19.38 18.22C19.38 19.9 20.68 21 24.72 22.04C28.76 23.08 33.08 24.82 33.08 29.86C33.04 33.52 30.3 35.52 26.82 36.18V36.18Z" fill="url(#paint0_linear_4225_20615)"/>
</g>
<defs>
<linearGradient id="paint0_linear_4225_20615" x1="24" y1="4" x2="24" y2="44" gradientUnits="userSpaceOnUse">
<stop stop-color="#7B6EFF"/>
<stop offset="0.545" stop-color="#E1C8CF"/>
<stop offset="1" stop-color="#EAAB80"/>
</linearGradient>
<clipPath id="clip0_4225_20615">
<rect width="48" height="48" fill="white"/>
</clipPath>
</defs>
</svg>
