<svg width="802" height="420" viewBox="0 0 802 420" fill="none" xmlns="http://www.w3.org/2000/svg">
<path d="M1 16C1 7.43959 7.93959 0.5 16.5 0.5H785.5C794.06 0.5 801 7.43959 801 16V403.478C801 412.039 794.06 418.978 785.5 418.978H16.5C7.93957 418.978 1 412.039 1 403.478V16Z" fill="#F7F7F7"/>
<path d="M1 16C1 7.43959 7.93959 0.5 16.5 0.5H785.5C794.06 0.5 801 7.43959 801 16V403.478C801 412.039 794.06 418.978 785.5 418.978H16.5C7.93957 418.978 1 412.039 1 403.478V16Z" stroke="#DDDDDD"/>
<path d="M37.0315 62.5H26.505V45.2423H37.0315V47.3906H28.8443V52.7851H36.22V54.8617H28.8443V60.3279H37.0315V62.5ZM39.0845 59.1105H41.2328C41.2328 60.304 42.1398 61.0201 43.6197 61.0201C45.1951 61.0201 46.1021 60.3756 46.1021 59.3015C46.1021 58.5138 45.7202 58.0364 44.5029 57.7261L42.4501 57.2487C40.3734 56.7474 39.3948 55.721 39.3948 54.0024C39.3948 51.8542 41.2089 50.4936 43.7868 50.4936C46.3408 50.4936 48.0117 51.9258 48.0594 54.1457H45.9112C45.8634 52.976 45.0758 52.2361 43.7152 52.2361C42.3069 52.2361 41.5192 52.8567 41.5192 53.9308C41.5192 54.7185 42.0921 55.2437 43.2378 55.5301L45.2906 56.0313C47.2718 56.5087 48.2504 57.4158 48.2504 59.1583C48.2504 61.3781 46.3408 62.7864 43.572 62.7864C40.827 62.7864 39.0845 61.3304 39.0845 59.1105ZM54.0326 62.5H51.7889V52.7135H49.4974V50.8278H51.7889V47.1757H54.0326V50.8278H56.3241V52.7135H54.0326V62.5ZM59.4357 48.0589C58.6242 48.0589 57.9558 47.3906 57.9558 46.579C57.9558 45.7436 58.6242 45.0991 59.4357 45.0991C60.2473 45.0991 60.9156 45.7436 60.9156 46.579C60.9156 47.3906 60.2473 48.0589 59.4357 48.0589ZM58.3377 62.5V50.8278H60.5815V62.5H58.3377ZM66.0826 62.5H63.8389V50.8278H65.844L66.0588 52.3554C66.6555 51.2574 67.8967 50.4936 69.5437 50.4936C71.3578 50.4936 72.6468 51.4007 73.2435 52.8567C73.7925 51.4007 75.2008 50.4936 77.0149 50.4936C79.6883 50.4936 81.3114 52.1645 81.3114 54.8617V62.5H79.1154V55.4107C79.1154 53.5728 78.089 52.5225 76.5136 52.5225C74.8189 52.5225 73.697 53.716 73.697 55.5778V62.5H71.4772V55.3869C71.4772 53.5489 70.4746 52.5464 68.8993 52.5464C67.2045 52.5464 66.0826 53.716 66.0826 55.5778V62.5ZM87.8351 62.7864C85.3288 62.7864 83.8489 61.3781 83.8489 59.2537C83.8489 57.1055 85.4481 55.7688 88.1931 55.554L91.8691 55.2675V54.9333C91.8691 52.976 90.6994 52.2838 89.1241 52.2838C87.2384 52.2838 86.1642 53.1193 86.1642 54.5276H84.2069C84.2069 52.0929 86.212 50.4936 89.2195 50.4936C92.1077 50.4936 94.0651 52.0213 94.0651 55.172V62.5H92.1555L91.9168 60.6143C91.3201 61.951 89.7208 62.7864 87.8351 62.7864ZM88.4796 61.044C90.604 61.044 91.8929 59.6595 91.8929 57.4635V56.8429L88.9092 57.0816C86.9281 57.2726 86.1165 58.0364 86.1165 59.1821C86.1165 60.4233 87.0235 61.044 88.4796 61.044ZM100.28 62.5H98.0362V52.7135H95.7447V50.8278H98.0362V47.1757H100.28V50.8278H102.571V52.7135H100.28V62.5ZM109.505 62.7864C106.068 62.7864 103.705 60.304 103.705 56.6758C103.705 53.0238 106.02 50.4936 109.409 50.4936C112.727 50.4936 114.899 52.7851 114.899 56.2462V57.0816L105.877 57.1055C106.044 59.564 107.333 60.9246 109.553 60.9246C111.295 60.9246 112.441 60.2085 112.823 58.8718H114.923C114.35 61.3781 112.393 62.7864 109.505 62.7864ZM109.409 52.3793C107.452 52.3793 106.211 53.5489 105.924 55.6017H112.656C112.656 53.6683 111.391 52.3793 109.409 52.3793ZM122.084 62.7864C118.695 62.7864 116.642 60.2563 116.642 56.6997C116.642 53.1193 118.718 50.4936 122.179 50.4936C123.97 50.4936 125.473 51.2813 126.261 52.7135V44.932H128.481V62.5H126.476L126.285 60.3756C125.521 61.9749 123.946 62.7864 122.084 62.7864ZM122.538 60.7575C124.829 60.7575 126.237 59.0628 126.237 56.6281C126.237 54.2411 124.829 52.5225 122.538 52.5225C120.246 52.5225 118.909 54.2411 118.909 56.6281C118.909 59.0389 120.246 60.7575 122.538 60.7575ZM139.343 62.5H136.908L143.21 45.2423H145.811L152.137 62.5H149.678L148.127 58.2035H140.87L139.343 62.5ZM144.212 48.966L141.587 56.1746H147.435L144.785 48.966C144.666 48.6318 144.546 48.226 144.499 47.9634C144.451 48.2021 144.332 48.6079 144.212 48.966ZM156.293 62.5H154.049V50.8278H156.078L156.317 52.618C157.057 51.2813 158.537 50.4936 160.184 50.4936C163.263 50.4936 164.671 52.3793 164.671 55.363V62.5H162.427V55.8643C162.427 53.5012 161.329 52.5464 159.611 52.5464C157.51 52.5464 156.293 54.0502 156.293 56.3178V62.5ZM170.022 62.5H167.779V50.8278H169.808L170.046 52.618C170.786 51.2813 172.266 50.4936 173.913 50.4936C176.992 50.4936 178.401 52.3793 178.401 55.363V62.5H176.157V55.8643C176.157 53.5012 175.059 52.5464 173.34 52.5464C171.24 52.5464 170.022 54.0502 170.022 56.3178V62.5ZM189.576 50.8278H191.796V62.5H189.791L189.552 60.7337C188.884 61.951 187.333 62.7864 185.614 62.7864C182.893 62.7864 181.365 60.9485 181.365 58.0841V50.8278H183.609V57.3442C183.609 59.8505 184.683 60.8053 186.402 60.8053C188.454 60.8053 189.576 59.4924 189.576 56.9861V50.8278ZM198.465 62.7864C195.959 62.7864 194.479 61.3781 194.479 59.2537C194.479 57.1055 196.078 55.7688 198.823 55.554L202.499 55.2675V54.9333C202.499 52.976 201.329 52.2838 199.754 52.2838C197.868 52.2838 196.794 53.1193 196.794 54.5276H194.837C194.837 52.0929 196.842 50.4936 199.849 50.4936C202.738 50.4936 204.695 52.0213 204.695 55.172V62.5H202.785L202.547 60.6143C201.95 61.951 200.351 62.7864 198.465 62.7864ZM199.109 61.044C201.234 61.044 202.523 59.6595 202.523 57.4635V56.8429L199.539 57.0816C197.558 57.2726 196.746 58.0364 196.746 59.1821C196.746 60.4233 197.653 61.044 199.109 61.044ZM210.094 62.5H207.85V44.932H210.094V62.5ZM224.387 55.4823L218.539 45.2423H221.165L225.008 52.1406C225.246 52.5464 225.39 52.8806 225.581 53.2863C225.795 52.8567 225.843 52.7135 226.153 52.1406L229.973 45.2423H232.527L226.726 55.4823V62.5H224.387V55.4823ZM235.497 48.0589C234.686 48.0589 234.017 47.3906 234.017 46.579C234.017 45.7436 234.686 45.0991 235.497 45.0991C236.309 45.0991 236.977 45.7436 236.977 46.579C236.977 47.3906 236.309 48.0589 235.497 48.0589ZM234.399 62.5V50.8278H236.643V62.5H234.399ZM244.937 62.7864C241.5 62.7864 239.136 60.304 239.136 56.6758C239.136 53.0238 241.452 50.4936 244.841 50.4936C248.159 50.4936 250.331 52.7851 250.331 56.2462V57.0816L241.309 57.1055C241.476 59.564 242.765 60.9246 244.984 60.9246C246.727 60.9246 247.873 60.2085 248.255 58.8718H250.355C249.782 61.3781 247.825 62.7864 244.937 62.7864ZM244.841 52.3793C242.884 52.3793 241.643 53.5489 241.356 55.6017H248.088C248.088 53.6683 246.822 52.3793 244.841 52.3793ZM255.129 62.5H252.885V44.932H255.129V62.5ZM263.11 62.7864C259.721 62.7864 257.668 60.2563 257.668 56.6997C257.668 53.1193 259.745 50.4936 263.206 50.4936C264.996 50.4936 266.5 51.2813 267.287 52.7135V44.932H269.507V62.5H267.502L267.311 60.3756C266.547 61.9749 264.972 62.7864 263.11 62.7864ZM263.564 60.7575C265.855 60.7575 267.264 59.0628 267.264 56.6281C267.264 54.2411 265.855 52.5225 263.564 52.5225C261.272 52.5225 259.936 54.2411 259.936 56.6281C259.936 59.0389 261.272 60.7575 263.564 60.7575ZM274.654 53.8353C273.723 53.8353 272.935 53.0715 272.935 52.1883C272.935 51.2574 273.723 50.4936 274.654 50.4936C275.561 50.4936 276.349 51.2574 276.349 52.1883C276.349 53.0715 275.561 53.8353 274.654 53.8353ZM274.654 62.7864C273.723 62.7864 272.935 62.0226 272.935 61.1156C272.935 60.1847 273.723 59.4208 274.654 59.4208C275.561 59.4208 276.349 60.1847 276.349 61.1156C276.349 62.0226 275.561 62.7864 274.654 62.7864Z" fill="#75797E"/>
<path d="M584.901 54.311C584.901 43.335 590.585 35.887 599.503 35.887C608.372 35.887 614.056 43.335 614.056 54.311C614.056 65.336 608.617 72.637 599.503 72.637C590.34 72.637 584.901 65.336 584.901 54.311ZM589.654 54.311C589.654 63.033 593.28 68.325 599.503 68.325C605.726 68.325 609.303 63.033 609.303 54.311C609.303 45.491 605.726 40.199 599.503 40.199C593.28 40.199 589.654 45.491 589.654 54.311ZM621.227 72.588C619.316 72.588 617.699 71.02 617.699 69.158C617.699 67.247 619.316 65.679 621.227 65.679C623.089 65.679 624.706 67.247 624.706 69.158C624.706 71.02 623.089 72.588 621.227 72.588ZM633.198 40.885H625.75V36.573H637.804V72H633.198V40.885ZM668.05 71.951L644.138 72V68.325L655.555 58.476C661.288 53.527 662.905 51.126 662.905 47.353C662.905 42.894 660.357 40.248 656.094 40.248C651.733 40.248 648.891 43.433 648.793 48.48H643.991C644.138 40.885 648.94 35.936 656.143 35.936C663.248 35.936 667.805 40.248 667.805 47.059C667.805 52.106 665.306 55.683 659.034 61.122L651.684 67.492H668.05V71.951ZM687.583 72V36.573H701.107C708.016 36.573 712.23 40.101 712.23 45.932C712.23 49.999 710.466 52.743 706.938 54.213C710.858 55.487 712.867 58.329 712.867 62.543C712.867 68.423 708.604 72 701.597 72H687.583ZM700.813 40.836H692.385V52.204H701.107C705.076 52.204 707.33 50.048 707.33 46.373C707.33 42.845 704.978 40.836 700.813 40.836ZM701.499 56.369H692.385V67.737H701.499C705.615 67.737 707.918 65.63 707.918 61.955C707.918 58.427 705.566 56.369 701.499 56.369ZM714.682 40.983V36.573H740.799V40.983H730.166V72H725.364V40.983H714.682ZM758.987 72.539C748.893 72.539 742.18 65.287 742.18 54.311C742.18 43.384 749.089 35.985 759.232 35.985C767.219 35.985 773.344 40.738 774.667 47.99H769.522C768.199 43.384 764.23 40.591 759.085 40.591C751.931 40.591 747.227 45.981 747.227 54.262C747.227 62.543 751.931 67.933 759.085 67.933C764.279 67.933 768.395 65.14 769.718 60.779H774.814C773.295 67.835 766.974 72.539 758.987 72.539Z" fill="#2D3239"/>
<path d="M24.8342 154.13V151.982H37.5567V154.13H32.377V169.239H30.0377V154.13H24.8342ZM36.8745 163.391C36.8745 159.787 39.4524 157.257 42.9612 157.257C46.4462 157.257 49.0241 159.787 49.0241 163.391C49.0241 166.996 46.4462 169.526 42.9612 169.526C39.4524 169.526 36.8745 166.996 36.8745 163.391ZM39.1421 163.391C39.1421 165.826 40.6936 167.521 42.9612 167.521C45.205 167.521 46.7804 165.826 46.7804 163.391C46.7804 160.957 45.205 159.262 42.9612 159.262C40.6936 159.262 39.1421 160.957 39.1421 163.391ZM54.6853 169.239H52.4416V159.453H50.1501V157.567H52.4416V153.915H54.6853V157.567H56.9768V159.453H54.6853V169.239ZM62.2639 169.526C59.7576 169.526 58.2777 168.117 58.2777 165.993C58.2777 163.845 59.8769 162.508 62.6219 162.293L66.2978 162.007V161.673C66.2978 159.715 65.1282 159.023 63.5528 159.023C61.6672 159.023 60.593 159.859 60.593 161.267H58.6357C58.6357 158.832 60.6408 157.233 63.6483 157.233C66.5365 157.233 68.4938 158.761 68.4938 161.911V169.239H66.5843L66.3456 167.354C65.7488 168.69 64.1496 169.526 62.2639 169.526ZM62.9084 167.783C65.0328 167.783 66.3217 166.399 66.3217 164.203V163.582L63.338 163.821C61.3568 164.012 60.5453 164.776 60.5453 165.921C60.5453 167.163 61.4523 167.783 62.9084 167.783ZM73.8927 169.239H71.6489V151.671H73.8927V169.239ZM84.1044 169.239V151.982H90.6924C94.058 151.982 96.1107 153.7 96.1107 156.541C96.1107 158.522 95.2514 159.859 93.5328 160.575C95.4424 161.195 96.4211 162.58 96.4211 164.632C96.4211 167.497 94.3444 169.239 90.9311 169.239H84.1044ZM90.5491 154.058H86.4436V159.596H90.6924C92.6258 159.596 93.7238 158.546 93.7238 156.755C93.7238 155.037 92.5781 154.058 90.5491 154.058ZM90.8833 161.625H86.4436V167.163H90.8833C92.8884 167.163 94.0102 166.136 94.0102 164.346C94.0102 162.627 92.8645 161.625 90.8833 161.625ZM97.3054 154.13V151.982H110.028V154.13H104.848V169.239H102.509V154.13H97.3054ZM118.888 169.502C113.971 169.502 110.7 165.969 110.7 160.622C110.7 155.299 114.066 151.695 119.007 151.695C122.898 151.695 125.882 154.01 126.526 157.543H124.02C123.375 155.299 121.442 153.939 118.935 153.939C115.451 153.939 113.159 156.565 113.159 160.598C113.159 164.632 115.451 167.258 118.935 167.258C121.466 167.258 123.471 165.898 124.115 163.773H126.598C125.858 167.21 122.778 169.502 118.888 169.502ZM136.709 169.239H134.274L140.576 151.982H143.177L149.503 169.239H147.044L145.493 164.943H138.236L136.709 169.239ZM141.578 155.705L138.953 162.914H144.801L142.151 155.705C142.032 155.371 141.912 154.965 141.865 154.703C141.817 154.941 141.698 155.347 141.578 155.705ZM149.964 157.567H151.683V155.705C151.683 152.841 153.234 151.671 155.263 151.671C155.693 151.671 156.218 151.695 156.648 151.767V153.7H155.645C154.284 153.7 153.926 154.44 153.926 155.705V157.567H159.393V153.915H161.636V157.567H163.928V159.453H161.636V169.239H159.393V159.453H153.926V169.239H151.683V159.453H149.964V157.567ZM170.857 169.526C167.42 169.526 165.057 167.043 165.057 163.415C165.057 159.763 167.372 157.233 170.762 157.233C174.08 157.233 176.252 159.524 176.252 162.985V163.821L167.229 163.845C167.396 166.303 168.685 167.664 170.905 167.664C172.647 167.664 173.793 166.948 174.175 165.611H176.276C175.703 168.117 173.745 169.526 170.857 169.526ZM170.762 159.119C168.804 159.119 167.563 160.288 167.277 162.341H174.008C174.008 160.408 172.743 159.119 170.762 159.119ZM185.441 157.472V159.524H184.439C182.314 159.524 181.002 160.813 181.002 163.057V169.239H178.758V157.591H180.858L181.002 159.357C181.479 158.14 182.649 157.328 184.248 157.328C184.654 157.328 184.988 157.376 185.441 157.472ZM196.913 154.082H193.285V151.982H199.157V169.239H196.913V154.082ZM213.758 162.222L207.91 151.982H210.535L214.378 158.88C214.617 159.286 214.76 159.62 214.951 160.026C215.166 159.596 215.214 159.453 215.524 158.88L219.343 151.982H221.897L216.097 162.222V169.239H213.758V162.222ZM226.452 169.526C223.015 169.526 220.652 167.043 220.652 163.415C220.652 159.763 222.967 157.233 226.356 157.233C229.674 157.233 231.846 159.524 231.846 162.985V163.821L222.824 163.845C222.991 166.303 224.28 167.664 226.5 167.664C228.242 167.664 229.388 166.948 229.77 165.611H231.87C231.297 168.117 229.34 169.526 226.452 169.526ZM226.356 159.119C224.399 159.119 223.158 160.288 222.871 162.341H229.603C229.603 160.408 228.338 159.119 226.356 159.119ZM237.649 169.526C235.143 169.526 233.663 168.117 233.663 165.993C233.663 163.845 235.262 162.508 238.007 162.293L241.683 162.007V161.673C241.683 159.715 240.514 159.023 238.938 159.023C237.053 159.023 235.978 159.859 235.978 161.267H234.021C234.021 158.832 236.026 157.233 239.034 157.233C241.922 157.233 243.879 158.761 243.879 161.911V169.239H241.97L241.731 167.354C241.134 168.69 239.535 169.526 237.649 169.526ZM238.294 167.783C240.418 167.783 241.707 166.399 241.707 164.203V163.582L238.723 163.821C236.742 164.012 235.931 164.776 235.931 165.921C235.931 167.163 236.838 167.783 238.294 167.783ZM253.67 157.472V159.524H252.668C250.543 159.524 249.23 160.813 249.23 163.057V169.239H246.987V157.591H249.087L249.23 159.357C249.708 158.14 250.877 157.328 252.477 157.328C252.882 157.328 253.217 157.376 253.67 157.472ZM257.684 160.575C256.753 160.575 255.965 159.811 255.965 158.928C255.965 157.997 256.753 157.233 257.684 157.233C258.591 157.233 259.379 157.997 259.379 158.928C259.379 159.811 258.591 160.575 257.684 160.575ZM257.684 169.526C256.753 169.526 255.965 168.762 255.965 167.855C255.965 166.924 256.753 166.16 257.684 166.16C258.591 166.16 259.379 166.924 259.379 167.855C259.379 168.762 258.591 169.526 257.684 169.526Z" fill="#75797E"/>
<path d="M612.666 178.69L588.754 178.739V175.064L600.171 165.215C605.904 160.266 607.521 157.865 607.521 154.092C607.521 149.633 604.973 146.987 600.71 146.987C596.349 146.987 593.507 150.172 593.409 155.219H588.607C588.754 147.624 593.556 142.675 600.759 142.675C607.864 142.675 612.421 146.987 612.421 153.798C612.421 158.845 609.922 162.422 603.65 167.861L596.3 174.231H612.666V178.69ZM621.877 179.327C619.966 179.327 618.349 177.759 618.349 175.897C618.349 173.986 619.966 172.418 621.877 172.418C623.739 172.418 625.356 173.986 625.356 175.897C625.356 177.759 623.739 179.327 621.877 179.327ZM633.849 147.624H626.401V143.312H638.455V178.739H633.849V147.624ZM668.7 178.69L644.788 178.739V175.064L656.205 165.215C661.938 160.266 663.555 157.865 663.555 154.092C663.555 149.633 661.007 146.987 656.744 146.987C652.383 146.987 649.541 150.172 649.443 155.219H644.641C644.788 147.624 649.59 142.675 656.793 142.675C663.898 142.675 668.455 146.987 668.455 153.798C668.455 158.845 665.956 162.422 659.684 167.861L652.334 174.231H668.7V178.69ZM688.233 178.739V143.312H701.757C708.666 143.312 712.88 146.84 712.88 152.671C712.88 156.738 711.116 159.482 707.588 160.952C711.508 162.226 713.517 165.068 713.517 169.282C713.517 175.162 709.254 178.739 702.247 178.739H688.233ZM701.463 147.575H693.035V158.943H701.757C705.726 158.943 707.98 156.787 707.98 153.112C707.98 149.584 705.628 147.575 701.463 147.575ZM702.149 163.108H693.035V174.476H702.149C706.265 174.476 708.568 172.369 708.568 168.694C708.568 165.166 706.216 163.108 702.149 163.108ZM715.332 147.722V143.312H741.449V147.722H730.816V178.739H726.014V147.722H715.332ZM759.637 179.278C749.543 179.278 742.83 172.026 742.83 161.05C742.83 150.123 749.739 142.724 759.882 142.724C767.869 142.724 773.994 147.477 775.317 154.729H770.172C768.849 150.123 764.88 147.33 759.735 147.33C752.581 147.33 747.877 152.72 747.877 161.001C747.877 169.282 752.581 174.672 759.735 174.672C764.929 174.672 769.045 171.879 770.368 167.518H775.464C773.945 174.574 767.624 179.278 759.637 179.278Z" fill="#2D3239"/>
<path d="M24.5 395.478C31.3601 368.727 57.4286 315.723 106.822 317.717C168.563 320.209 139.083 358.591 214.173 356.598C289.264 354.604 280.92 289.802 367.135 283.322C453.351 276.842 529.554 338.154 590.739 317.717C651.923 297.279 699.759 228.49 761.5 238.46" stroke="#FEC28E" stroke-width="2"/>
<path d="M106.822 317.717C57.4286 315.723 31.3601 368.727 24.5 395.478H761.5V238.46C699.759 228.49 651.923 297.279 590.739 317.717C529.554 338.154 453.351 276.842 367.135 283.322C280.92 289.802 289.264 354.604 214.173 356.598C139.083 358.591 168.563 320.209 106.822 317.717Z" fill="url(#paint0_linear_4225_20654)"/>
<defs>
<linearGradient id="paint0_linear_4225_20654" x1="393" y1="237.478" x2="393" y2="395.478" gradientUnits="userSpaceOnUse">
<stop stop-color="#FEC28E"/>
<stop offset="1" stop-color="#FEC28E" stop-opacity="0"/>
</linearGradient>
</defs>
</svg>
