<svg width="80" height="81" viewBox="0 0 80 81" fill="none" xmlns="http://www.w3.org/2000/svg">
<path d="M52.5525 79.8855L39.9987 71.8855L27.4448 79.8855V52.9316H52.5525V79.8855Z" fill="#0D0E16"/>
<mask id="mask0_4423_59009" style="mask-type:alpha" maskUnits="userSpaceOnUse" x="27" y="52" width="26" height="28">
<path d="M52.5525 79.8874L39.9987 71.8874L27.4448 79.8874V52.9336H52.5525V79.8874Z" fill="#0D0E16"/>
</mask>
<g mask="url(#mask0_4423_59009)">
<g opacity="0.6" filter="url(#filter0_f_4423_59009)">
<ellipse cx="66.2174" cy="58.3564" rx="30.9178" ry="31.9313" transform="rotate(-120 66.2174 58.3564)" fill="url(#paint0_linear_4423_59009)"/>
</g>
</g>
<path d="M39.9992 58.2229C55.769 58.2229 68.553 45.4389 68.553 29.6691C68.553 13.8992 55.769 1.11523 39.9992 1.11523C24.2293 1.11523 11.4453 13.8992 11.4453 29.6691C11.4453 45.4389 24.2293 58.2229 39.9992 58.2229Z" fill="#B7B8BC"/>
<path d="M40.0028 53.0544C52.9177 53.0544 63.3874 42.5847 63.3874 29.6698C63.3874 16.7548 52.9177 6.28516 40.0028 6.28516C27.0878 6.28516 16.6182 16.7548 16.6182 29.6698C16.6182 42.5847 27.0878 53.0544 40.0028 53.0544Z" fill="#75797E"/>
<path d="M39.9965 47.3954C49.7847 47.3954 57.7196 39.4605 57.7196 29.6723C57.7196 19.8841 49.7847 11.9492 39.9965 11.9492C30.2083 11.9492 22.2734 19.8841 22.2734 29.6723C22.2734 39.4605 30.2083 47.3954 39.9965 47.3954Z" fill="#1C1D25"/>
<path d="M43.1182 19.1621C43.313 18.9684 43.613 18.9445 43.834 19.0898L43.9238 19.1621L48.0547 23.2695C48.2511 23.4648 48.2752 23.7672 48.1279 23.9893L48.0547 24.0791L43.7773 28.3311C43.1919 28.9134 43.6039 29.9129 44.4297 29.9131H47.5C47.613 29.9132 47.7227 29.9462 47.8154 30.0078L47.9023 30.0791L53.2471 35.3936C53.4434 35.5888 53.4685 35.8912 53.3213 36.1133L53.2471 36.2031L49.1182 40.3105C48.9234 40.5042 48.6234 40.5289 48.4023 40.3838L48.3135 40.3105L43.2686 35.2969C42.9301 34.9604 42.3961 34.939 42.0332 35.2334L41.9629 35.2969L36.9209 40.3105C36.7261 40.5043 36.4261 40.5282 36.2051 40.3828L36.1152 40.3105L31.9863 36.2031C31.7901 36.0079 31.765 35.7054 31.9121 35.4834L31.9863 35.3936L36.2627 31.1396C36.8479 30.5573 36.4359 29.558 35.6104 29.5576H32.5391C32.4261 29.5576 32.3164 29.5244 32.2236 29.4629L32.1367 29.3916L26.792 24.0791C26.5956 23.8839 26.5705 23.5815 26.7178 23.3594L26.792 23.2695L30.9229 19.1621C31.1178 18.9683 31.4176 18.9443 31.6387 19.0898L31.7275 19.1621L36.7705 24.1758C37.109 24.5123 37.643 24.5338 38.0059 24.2393L38.0762 24.1758L43.1182 19.1621Z" fill="white" fill-opacity="0.4" stroke="url(#paint1_linear_4423_59009)" stroke-width="0.35493"/>
<defs>
<filter id="filter0_f_4423_59009" x="5.10637" y="-2.24665" width="122.222" height="121.206" filterUnits="userSpaceOnUse" color-interpolation-filters="sRGB">
<feFlood flood-opacity="0" result="BackgroundImageFix"/>
<feBlend mode="normal" in="SourceGraphic" in2="BackgroundImageFix" result="shape"/>
<feGaussianBlur stdDeviation="14.7122" result="effect1_foregroundBlur_4423_59009"/>
</filter>
<linearGradient id="paint0_linear_4423_59009" x1="69.4552" y1="71.9323" x2="35.2996" y2="58.3564" gradientUnits="userSpaceOnUse">
<stop stop-color="#FFFBF2"/>
<stop offset="1" stop-color="#FFFBF2" stop-opacity="0"/>
</linearGradient>
<linearGradient id="paint1_linear_4423_59009" x1="40.0194" y1="18.5117" x2="40.0194" y2="40.961" gradientUnits="userSpaceOnUse">
<stop stop-color="#7B6EFF"/>
<stop offset="0.545" stop-color="#E1C8CF"/>
<stop offset="1" stop-color="#EAAB80"/>
</linearGradient>
</defs>
</svg>
