<svg width="35" height="35" viewBox="0 0 35 35" fill="none" xmlns="http://www.w3.org/2000/svg">
<g clip-path="url(#clip0_5306_7016)">
<path d="M28.6569 18.3981C27.8733 17.3848 26.6908 16.6888 25.1095 16.3105C27.1232 15.2834 28.0081 13.5401 27.7651 11.0803C27.6839 10.1884 27.4374 9.41534 27.025 8.76009C26.6124 8.1047 26.0556 7.57782 25.3524 7.17923C24.6498 6.78014 23.8856 6.47634 23.0617 6.26689C22.2375 6.05745 21.2913 5.90536 20.2237 5.81087V0.702637H17.1023V5.66894C16.5618 5.66894 15.7375 5.68243 14.6295 5.70948V0.702637H11.5077V5.81087C11.0616 5.82443 10.4063 5.83131 9.54142 5.83131L5.24414 5.81087V9.13532H7.49402C8.5211 9.13532 9.12246 9.59489 9.29811 10.5137V16.3315C9.43343 16.3315 9.54142 16.3384 9.62257 16.3519H9.29811V24.5004C9.19012 25.1894 8.79827 25.5343 8.12251 25.5343H5.87277L5.24428 29.2439H9.29846C9.55526 29.2439 9.92666 29.2473 10.4134 29.2534C10.8998 29.2602 11.2645 29.2636 11.5078 29.2636V34.4326H14.6301V29.3244C15.1975 29.3383 16.0218 29.3449 17.1029 29.3449V34.4326H20.2244V29.2636C21.3328 29.2097 22.3158 29.1089 23.1736 28.9597C24.0317 28.8105 24.8529 28.5778 25.6365 28.26C26.4201 27.9426 27.0754 27.5471 27.6023 27.0741C28.1296 26.6015 28.565 25.9999 28.9102 25.27C29.2543 24.5402 29.4741 23.6956 29.5684 22.7359C29.7449 20.8579 29.4406 19.4118 28.6569 18.3981ZM14.6902 9.35769C14.7848 9.35769 15.0517 9.35428 15.4909 9.34746C15.9303 9.3405 16.295 9.33383 16.5856 9.32701C16.8762 9.32034 17.2681 9.33724 17.7615 9.37778C18.2548 9.41832 18.6702 9.47249 19.008 9.53994C19.3457 9.60739 19.7177 9.71893 20.1227 9.87435C20.5285 10.0296 20.8526 10.2189 21.0956 10.4418C21.339 10.6648 21.5451 10.9487 21.7137 11.2933C21.8828 11.6379 21.9673 12.0331 21.9673 12.479C21.9673 12.8574 21.9066 13.2021 21.7851 13.5131C21.6638 13.8239 21.4809 14.0841 21.238 14.2935C20.995 14.503 20.7445 14.6857 20.4877 14.8409C20.2312 14.9962 19.9031 15.1213 19.5046 15.2158C19.1062 15.3104 18.7582 15.3848 18.4611 15.4387C18.1637 15.4928 17.7922 15.5301 17.3462 15.5503C16.9001 15.5704 16.5621 15.5842 16.3325 15.5909C16.1027 15.5976 15.7886 15.5976 15.3898 15.5909C14.9909 15.5842 14.7581 15.5807 14.6904 15.5807V9.35762L14.6902 9.35769ZM23.2143 23.1618C23.0856 23.4728 22.9203 23.7432 22.7178 23.9731C22.5148 24.2024 22.2478 24.4053 21.9169 24.5808C21.586 24.7567 21.2648 24.8984 20.9542 25.0065C20.6432 25.115 20.2681 25.2091 19.8293 25.2905C19.3895 25.3716 19.0046 25.4287 18.6732 25.4627C18.3423 25.4966 17.9472 25.5235 17.4875 25.5439C17.0283 25.5638 16.6699 25.5741 16.4133 25.5741C16.1565 25.5741 15.8321 25.5704 15.4402 25.5638C15.048 25.5575 14.7982 25.5541 14.69 25.5541V18.7023C14.798 18.7023 15.119 18.6957 15.6529 18.682C16.1869 18.6683 16.6225 18.662 16.9604 18.662C17.2982 18.662 17.7646 18.682 18.3594 18.7228C18.9537 18.7631 19.4537 18.8236 19.8595 18.9047C20.2647 18.9859 20.707 19.1107 21.1871 19.2799C21.6667 19.4487 22.0554 19.6547 22.3528 19.898C22.6502 20.1416 22.9 20.452 23.1026 20.8305C23.3058 21.2088 23.4071 21.6413 23.4071 22.1279C23.407 22.5067 23.3429 22.8507 23.2143 23.1618Z" fill="url(#paint0_linear_5306_7016)"/>
</g>
<defs>
<linearGradient id="paint0_linear_5306_7016" x1="17.4306" y1="0.702637" x2="17.4306" y2="34.4326" gradientUnits="userSpaceOnUse">
<stop stop-color="#FEC28E"/>
<stop offset="1" stop-color="#FFD37A"/>
</linearGradient>
<clipPath id="clip0_5306_7016">
<rect width="33.7297" height="33.7297" fill="white" transform="translate(0.566406 0.702637)"/>
</clipPath>
</defs>
</svg>
