<svg width="32" height="32" viewBox="0 0 32 32" fill="none" xmlns="http://www.w3.org/2000/svg">
<g clip-path="url(#clip0_4281_23530)">
<circle cx="16.0002" cy="16" r="16" fill="#181928"/>
<circle cx="16.0042" cy="15.9996" r="14.1991" fill="#181928" stroke="url(#paint0_linear_4281_23530)" stroke-width="0.554113"/>
<path opacity="0.6" d="M20.8408 -0.507812C21.1667 -0.831889 21.6809 -0.852121 22.0302 -0.568359L22.0976 -0.507812L28.5468 5.9043C28.8754 6.23099 28.896 6.74996 28.6083 7.10059L28.5468 7.16895L21.8701 13.8057C20.9554 14.7148 21.599 16.2754 22.8886 16.2754H27.6806C27.8868 16.2754 28.0857 16.3473 28.2441 16.4766L28.3095 16.5352L36.6542 24.832C36.9827 25.1586 37.0032 25.6777 36.7158 26.0283L36.6542 26.0957L30.207 32.5088C29.8812 32.8327 29.3678 32.8527 29.0185 32.5693L28.9511 32.5088L21.0751 24.6807C20.5465 24.1554 19.7129 24.123 19.1464 24.583L19.037 24.6816L11.165 32.5088C10.8391 32.8328 10.3249 32.853 9.97552 32.5693L9.90814 32.5088L3.46088 26.0957C3.13274 25.7692 3.11231 25.2509 3.39935 24.9004L3.46088 24.832L10.1376 18.1914C11.0517 17.2822 10.4082 15.722 9.11908 15.7217H4.32513C4.11914 15.7217 3.91995 15.6505 3.76166 15.5215L3.69623 15.4629L-4.6485 7.16895C-4.97702 6.84241 -4.9973 6.32333 -4.71002 5.97266L-4.6485 5.9043L1.8017 -0.507812C2.12756 -0.831805 2.64084 -0.851888 2.99017 -0.568359L3.05756 -0.507812L10.9306 7.31934C11.4591 7.84484 12.2927 7.87792 12.8593 7.41797L12.9687 7.31934L20.8408 -0.507812Z" stroke="url(#paint1_linear_4281_23530)" stroke-width="0.554113"/>
<path d="M23.3459 17.9578C23.1401 17.447 22.8192 17.011 22.3831 16.6504C21.947 16.2898 21.3852 16.0344 20.6953 15.8842C21.5034 15.5519 22.1018 15.0624 22.4898 14.4167C22.8779 13.771 23.0723 13.04 23.0723 12.2243C23.0723 10.6401 22.4624 9.44784 21.2419 8.64739C20.4712 8.14196 19.5099 7.79662 18.3572 7.61061H18.4807V4.51172H16.5749V7.45281C16.4331 7.44899 16.2898 7.44747 16.1442 7.44747H15.1013V4.51248H13.1954V7.44747H8.31268V9.89533L10.1072 10.2757V21.9341L8.31268 22.3145V24.7509H13.1954V27.3825H15.1013V24.7509H16.5749V27.3825H18.4807V24.6762C19.9345 24.5192 21.0932 24.1129 21.9554 23.4557C23.0883 22.592 23.6547 21.3128 23.6547 19.6174C23.6547 19.0235 23.5518 18.4708 23.3459 17.9593V17.9578ZM18.2177 11.1242C18.6728 11.4528 18.9008 11.978 18.9008 12.6984C18.9008 13.3563 18.6568 13.8412 18.1697 14.1545C17.6825 14.4678 16.9477 14.6241 15.965 14.6241H14.2772V10.631H16.1426C17.0696 10.631 17.7611 10.7956 18.2162 11.1242H18.2177ZM18.8832 21.0887C18.467 21.4134 17.8472 21.5758 17.0231 21.5758H14.278V17.3807H17.2251C17.7641 17.3807 18.1994 17.4623 18.5325 17.6246C18.8649 17.787 19.1112 18.0325 19.2697 18.3618C19.4283 18.6904 19.5076 19.1043 19.5076 19.6037C19.5076 20.2692 19.2995 20.7647 18.884 21.0895L18.8832 21.0887Z" fill="white"/>
<g opacity="0.6" filter="url(#filter0_f_4281_23530)">
<ellipse cx="4.4672" cy="6.67724" rx="12.1451" ry="12.5432" transform="rotate(-120 4.4672 6.67724)" fill="url(#paint2_linear_4281_23530)"/>
</g>
<g opacity="0.6" filter="url(#filter1_f_4281_23530)">
<ellipse cx="27.186" cy="31.6128" rx="12.1451" ry="12.5432" transform="rotate(-120 27.186 31.6128)" fill="url(#paint3_linear_4281_23530)"/>
</g>
</g>
<path d="M16 0.0693359C24.7983 0.0693359 31.9307 7.2017 31.9307 16C31.9307 24.7983 24.7983 31.9307 16 31.9307C7.2017 31.9307 0.0693359 24.7983 0.0693359 16C0.0693359 7.2017 7.2017 0.0693359 16 0.0693359Z" stroke="#DDDDDD" stroke-width="0.138528"/>
<defs>
<filter id="filter0_f_4281_23530" x="-19.5384" y="-17.1288" width="48.0111" height="47.613" filterUnits="userSpaceOnUse" color-interpolation-filters="sRGB">
<feFlood flood-opacity="0" result="BackgroundImageFix"/>
<feBlend mode="normal" in="SourceGraphic" in2="BackgroundImageFix" result="shape"/>
<feGaussianBlur stdDeviation="5.77922" result="effect1_foregroundBlur_4281_23530"/>
</filter>
<filter id="filter1_f_4281_23530" x="3.18039" y="7.80679" width="48.0111" height="47.613" filterUnits="userSpaceOnUse" color-interpolation-filters="sRGB">
<feFlood flood-opacity="0" result="BackgroundImageFix"/>
<feBlend mode="normal" in="SourceGraphic" in2="BackgroundImageFix" result="shape"/>
<feGaussianBlur stdDeviation="5.77922" result="effect1_foregroundBlur_4281_23530"/>
</filter>
<linearGradient id="paint0_linear_4281_23530" x1="16.0042" y1="30.4758" x2="1.12279" y2="4.47426" gradientUnits="userSpaceOnUse">
<stop stop-color="#7B6EFF"/>
<stop offset="0.65819" stop-color="#E1C8CF"/>
<stop offset="1" stop-color="#FFD37A"/>
</linearGradient>
<linearGradient id="paint1_linear_4281_23530" x1="16.0028" y1="-1.52344" x2="16.0028" y2="33.5242" gradientUnits="userSpaceOnUse">
<stop stop-color="#7B6EFF"/>
<stop offset="0.545" stop-color="#E1C8CF"/>
<stop offset="1" stop-color="#EAAB80"/>
</linearGradient>
<linearGradient id="paint2_linear_4281_23530" x1="5.73907" y1="12.0101" x2="-7.67788" y2="6.67724" gradientUnits="userSpaceOnUse">
<stop stop-color="#FFFBF2"/>
<stop offset="1" stop-color="#FFFBF2" stop-opacity="0"/>
</linearGradient>
<linearGradient id="paint3_linear_4281_23530" x1="28.4578" y1="36.9457" x2="15.0409" y2="31.6128" gradientUnits="userSpaceOnUse">
<stop stop-color="#FFFBF2"/>
<stop offset="1" stop-color="#FFFBF2" stop-opacity="0"/>
</linearGradient>
<clipPath id="clip0_4281_23530">
<path d="M0 16C0 7.16344 7.16344 0 16 0C24.8366 0 32 7.16344 32 16C32 24.8366 24.8366 32 16 32C7.16344 32 0 24.8366 0 16Z" fill="white"/>
</clipPath>
</defs>
</svg>
