<svg width="260" height="225" viewBox="0 0 260 225" fill="none" xmlns="http://www.w3.org/2000/svg">
<path opacity="0.6" d="M249.449 -86.3252C251.587 -88.4518 254.999 -88.5189 257.217 -86.5254L257.428 -86.3252L324.979 -19.1182C327.133 -16.9757 327.2 -13.5319 325.181 -11.3086L324.979 -11.0977L250.366 63.1094C246.156 67.2974 249.122 74.4844 255.061 74.4844H313.88C315.282 74.4844 316.631 75.0053 317.667 75.9395L317.87 76.1309L401.262 159.099C403.415 161.241 403.482 164.683 401.464 166.906L401.263 167.117L333.738 234.324C331.601 236.452 328.187 236.519 325.97 234.525L325.76 234.326L244.835 153.841C242.319 151.339 238.303 151.261 235.694 153.607L235.446 153.842L154.552 234.325C152.414 236.452 149 236.518 146.783 234.523L146.572 234.324L79.0479 167.117C76.8957 164.975 76.8288 161.533 78.8467 159.31L79.0479 159.099L153.643 84.8594C157.851 80.6707 154.884 73.4844 148.946 73.4844H90.1191C88.7177 73.4844 87.3694 72.9649 86.333 72.0312L86.1299 71.8389L2.74023 -11.0977C0.586605 -13.2398 0.519213 -16.6836 2.53809 -18.9072L2.74023 -19.1182L70.291 -86.3252C72.4286 -88.4519 75.8422 -88.5191 78.0596 -86.5254L78.2705 -86.3252L159.165 -5.84277C161.681 -3.34 165.697 -3.26181 168.307 -5.6084L168.555 -5.84277L249.449 -86.3252Z" stroke="url(#paint0_linear_4281_23517)"/>
<defs>
<linearGradient id="paint0_linear_4281_23517" x1="202" y1="-91" x2="202" y2="239" gradientUnits="userSpaceOnUse">
<stop stop-color="#7B6EFF"/>
<stop offset="0.545" stop-color="#E1C8CF"/>
<stop offset="1" stop-color="#EAAB80"/>
</linearGradient>
</defs>
</svg>
