<svg width="24" height="17" viewBox="0 0 24 17" fill="none" xmlns="http://www.w3.org/2000/svg">
<path d="M23.4985 2.6643C23.2225 1.62499 22.4093 0.806504 21.3766 0.528676C19.505 0.0239257 12 0.0239258 12 0.0239258C12 0.0239258 4.49498 0.0239257 2.62336 0.528676C1.59075 0.806457 0.777516 1.62499 0.501516 2.6643C0 4.54811 0 8.47849 0 8.47849C0 8.47849 0 12.4089 0.501516 14.2927C0.777516 15.332 1.59075 16.1505 2.62336 16.4283C4.49498 16.9331 12 16.9331 12 16.9331C12 16.9331 19.505 16.9331 21.3766 16.4283C22.4093 16.1505 23.2225 15.332 23.4985 14.2927C24 12.4089 24 8.47849 24 8.47849C24 8.47849 24 4.54811 23.4985 2.6643Z" fill="white"/>
<path d="M9.54492 12.0472L15.8176 8.47875L9.54492 4.91016V12.0472Z" fill="#181928"/>
</svg>
